<svg xmlns="http://www.w3.org/2000/svg" width="24" height="24" viewBox="0 0 24 24" fill="none">
  <g clip-path="url(#clip0_309_1416)">
    <path d="M17.7253 14.4455C18.2484 14.4455 18.6724 14.0215 18.6724 13.4985C18.6724 12.9754 18.2484 12.5514 17.7253 12.5514C17.2023 12.5514 16.7783 12.9754 16.7783 13.4985C16.7783 14.0215 17.2023 14.4455 17.7253 14.4455Z" fill="#2A2455"/>
    <path d="M17.7253 18.2338C18.2484 18.2338 18.6724 17.8098 18.6724 17.2867C18.6724 16.7637 18.2484 16.3397 17.7253 16.3397C17.2023 16.3397 16.7783 16.7637 16.7783 17.2867C16.7783 17.8098 17.2023 18.2338 17.7253 18.2338Z" fill="#2A2455"/>
    <path d="M13.9371 13.4985C13.9371 14.0215 13.5131 14.4455 12.99 14.4455C12.467 14.4455 12.043 14.0215 12.043 13.4985C12.043 12.9754 12.467 12.5514 12.99 12.5514C13.5131 12.5514 13.9371 12.9754 13.9371 13.4985Z" fill="#2A2455"/>
    <path d="M13.9371 17.2867C13.9371 17.8098 13.5131 18.2338 12.99 18.2338C12.467 18.2338 12.043 17.8098 12.043 17.2867C12.043 16.7637 12.467 16.3397 12.99 16.3397C13.5131 16.3397 13.9371 16.7637 13.9371 17.2867Z" fill="#2A2455"/>
    <path d="M8.2547 14.4455C8.77775 14.4455 9.20177 14.0215 9.20177 13.4985C9.20177 12.9754 8.77775 12.5514 8.2547 12.5514C7.73165 12.5514 7.30764 12.9754 7.30764 13.4985C7.30764 14.0215 7.73165 14.4455 8.2547 14.4455Z" fill="#2A2455"/>
    <path d="M8.2547 18.2338C8.77775 18.2338 9.20177 17.8098 9.20177 17.2867C9.20177 16.7637 8.77775 16.3397 8.2547 16.3397C7.73165 16.3397 7.30764 16.7637 7.30764 17.2867C7.30764 17.8098 7.73165 18.2338 8.2547 18.2338Z" fill="#2A2455"/>
    <path fill-rule="evenodd" clip-rule="evenodd" d="M8.2547 2.84399C8.64699 2.84399 8.965 3.16201 8.965 3.55429V4.27664C9.59195 4.26458 10.2827 4.26458 11.0423 4.26459H14.9376C15.6973 4.26458 16.3881 4.26458 17.015 4.27664V3.55429C17.015 3.16201 17.3331 2.84399 17.7253 2.84399C18.1176 2.84399 18.4356 3.16201 18.4356 3.55429V4.3376C18.6818 4.35637 18.9149 4.37996 19.1355 4.40962C20.2459 4.5589 21.1446 4.87344 21.8534 5.58219C22.5621 6.29093 22.8766 7.18965 23.0259 8.30001C23.171 9.37891 23.171 10.7575 23.171 12.4979V14.499C23.171 16.2394 23.171 17.618 23.0259 18.6969C22.8766 19.8073 22.5621 20.706 21.8534 21.4147C21.1446 22.1235 20.2459 22.438 19.1355 22.5873C18.0566 22.7324 16.6781 22.7324 14.9376 22.7323H11.0425C9.30201 22.7324 7.9234 22.7324 6.8445 22.5873C5.73414 22.438 4.83543 22.1235 4.12668 21.4147C3.41793 20.706 3.10339 19.8073 2.95411 18.6969C2.80906 17.618 2.80907 16.2394 2.80908 14.499V12.498C2.80907 10.7575 2.80906 9.37892 2.95411 8.30001C3.10339 7.18965 3.41793 6.29093 4.12668 5.58219C4.83543 4.87344 5.73414 4.5589 6.8445 4.40962C7.0651 4.37996 7.29822 4.35637 7.5444 4.3376V3.55429C7.5444 3.16201 7.86242 2.84399 8.2547 2.84399ZM7.03379 5.81755C6.08096 5.94565 5.532 6.18589 5.13119 6.5867C4.73039 6.98751 4.49014 7.53647 4.36204 8.4893C4.34034 8.65067 4.3222 8.82055 4.30704 8.99991H21.673C21.6578 8.82055 21.6397 8.65067 21.618 8.4893C21.4899 7.53647 21.2497 6.98751 20.8489 6.5867C20.448 6.18589 19.8991 5.94565 18.9463 5.81755C17.973 5.68669 16.69 5.68519 14.8842 5.68519H11.0959C9.29001 5.68519 8.00706 5.68669 7.03379 5.81755ZM4.22968 12.5514C4.22968 11.7426 4.22998 11.0387 4.24207 10.4205H21.738C21.7501 11.0387 21.7504 11.7426 21.7504 12.5514V14.4455C21.7504 16.2514 21.7489 17.5344 21.618 18.5076C21.4899 19.4605 21.2497 20.0094 20.8489 20.4102C20.448 20.811 19.8991 21.0513 18.9463 21.1794C17.973 21.3102 16.69 21.3117 14.8842 21.3117H11.0959C9.29001 21.3117 8.00706 21.3102 7.03379 21.1794C6.08096 21.0513 5.532 20.811 5.13119 20.4102C4.73039 20.0094 4.49014 19.4605 4.36204 18.5076C4.23119 17.5344 4.22968 16.2514 4.22968 14.4455V12.5514Z" fill="#2A2455"/>
  </g>
  <defs>
    <clipPath id="clip0_309_1416">
      <rect x="0.678467" y="0.94989" width="22.7295" height="22.7295" rx="4.73532" fill="white"/>
    </clipPath>
  </defs>
</svg>