<svg xmlns="http://www.w3.org/2000/svg" width="27" height="27" viewBox="0 0 27 27" fill="none">
  <path d="M13.5383 9.40271V13.6247L16.1771 16.2635" stroke="white" stroke-width="1.58326" stroke-linecap="round" stroke-linejoin="round"/>
  <path d="M6.78769 6.87393L6.22792 6.31416L6.22792 6.31416L6.78769 6.87393ZM5.45102 8.2106L4.6594 8.21458C4.66158 8.64867 5.01294 9.00004 5.44704 9.00222L5.45102 8.2106ZM8.13388 9.01572C8.57108 9.01792 8.92728 8.66528 8.92948 8.22808C8.93168 7.79088 8.57904 7.43468 8.14184 7.43248L8.13388 9.01572ZM6.22913 5.51978C6.22694 5.08258 5.87073 4.72994 5.43354 4.73214C4.99634 4.73433 4.6437 5.09054 4.64589 5.52773L6.22913 5.51978ZM4.91149 12.3423C4.97086 11.9091 4.66785 11.5098 4.2347 11.4505C3.80154 11.3911 3.40227 11.6941 3.3429 12.1273L4.91149 12.3423ZM20.7817 6.38167C16.7494 2.34944 10.2335 2.3086 6.22792 6.31416L7.34745 7.4337C10.7241 4.05702 16.2376 4.07664 19.6621 7.50121L20.7817 6.38167ZM6.29543 20.8679C10.3277 24.9002 16.8436 24.941 20.8492 20.9354L19.7297 19.8159C16.353 23.1926 10.8395 23.173 7.41496 19.7484L6.29543 20.8679ZM20.8492 20.9354C24.8547 16.9299 24.8139 10.4139 20.7817 6.38167L19.6621 7.50121C23.0867 10.9258 23.1063 16.4392 19.7297 19.8159L20.8492 20.9354ZM6.22792 6.31416L4.89125 7.65083L6.01078 8.77037L7.34745 7.4337L6.22792 6.31416ZM5.44704 9.00222L8.13388 9.01572L8.14184 7.43248L5.45499 7.41898L5.44704 9.00222ZM6.24264 8.20662L6.22913 5.51978L4.64589 5.52773L4.6594 8.21458L6.24264 8.20662ZM3.3429 12.1273C2.91918 15.2185 3.90592 18.4784 6.29543 20.8679L7.41496 19.7484C5.38778 17.7212 4.55265 14.9603 4.91149 12.3423L3.3429 12.1273Z" fill="white"/>
</svg>