<svg xmlns="http://www.w3.org/2000/svg" width="26" height="27" viewBox="0 0 26 27" fill="none">
  <path d="M23.7628 15.6802V13.5692C23.7628 9.58861 23.7628 7.59833 22.5262 6.36172C21.2896 5.12512 19.2993 5.12512 15.3187 5.12512H11.0967C7.11613 5.12512 5.12585 5.12512 3.88925 6.36172C2.65265 7.59833 2.65265 9.58861 2.65265 13.5692V15.6802C2.65265 19.6607 2.65265 21.651 3.88925 22.8876C5.12585 24.1242 7.11613 24.1242 11.0967 24.1242H15.3187" stroke="#A5A2B8" stroke-width="1.58326" stroke-linecap="round"/>
  <path d="M7.93005 5.1251V3.54184" stroke="#A5A2B8" stroke-width="1.58326" stroke-linecap="round"/>
  <path d="M18.485 5.1251V3.54184" stroke="#A5A2B8" stroke-width="1.58326" stroke-linecap="round"/>
  <circle cx="19.5403" cy="19.9022" r="3.16652" stroke="#A5A2B8" stroke-width="1.58326"/>
  <path d="M22.179 22.541L23.7623 24.1243" stroke="#A5A2B8" stroke-width="1.58326" stroke-linecap="round"/>
  <path d="M3.18042 10.4026H23.235" stroke="#A5A2B8" stroke-width="1.58326" stroke-linecap="round"/>
</svg>