<svg width="22" height="22" viewBox="0 0 22 22" fill="none" xmlns="http://www.w3.org/2000/svg">
<path fill-rule="evenodd" clip-rule="evenodd" d="M9.24027 17.0435H3.46436C3.08486 17.0435 2.77686 16.7355 2.77686 16.356C2.77686 15.9765 3.08486 15.6685 3.46436 15.6685H9.24027C9.61977 15.6685 9.92777 15.9765 9.92777 16.356C9.92777 16.7355 9.61977 17.0435 9.24027 17.0435Z" fill="white"/>
<path fill-rule="evenodd" clip-rule="evenodd" d="M17.5919 8.15869H11.8169C11.4374 8.15869 11.1294 7.85069 11.1294 7.47119C11.1294 7.09169 11.4374 6.78369 11.8169 6.78369H17.5919C17.9714 6.78369 18.2794 7.09169 18.2794 7.47119C18.2794 7.85069 17.9714 8.15869 17.5919 8.15869Z" fill="white"/>
<mask id="mask0_58_2385" style="mask-type:luminance" maskUnits="userSpaceOnUse" x="2" y="4" width="7" height="7">
<path fill-rule="evenodd" clip-rule="evenodd" d="M2.75 4.58374H8.45698V10.2594H2.75V4.58374Z" fill="white"/>
</mask>
<g mask="url(#mask0_58_2385)">
<path fill-rule="evenodd" clip-rule="evenodd" d="M5.60358 5.95837C4.78867 5.95837 4.125 6.61471 4.125 7.42229C4.125 8.22896 4.78867 8.88437 5.60358 8.88437C6.41942 8.88437 7.08217 8.22896 7.08217 7.42229C7.08217 6.61471 6.41942 5.95837 5.60358 5.95837ZM5.60358 10.2594C4.03058 10.2594 2.75 8.98704 2.75 7.42229C2.75 5.85754 4.03058 4.58337 5.60358 4.58337C7.1775 4.58337 8.45717 5.85754 8.45717 7.42229C8.45717 8.98704 7.1775 10.2594 5.60358 10.2594Z" fill="white"/>
</g>
<path fill-rule="evenodd" clip-rule="evenodd" d="M15.9385 14.8574C15.1227 14.8574 14.459 15.5138 14.459 16.3204C14.459 17.128 15.1227 17.7834 15.9385 17.7834C16.7534 17.7834 17.4162 17.128 17.4162 16.3204C17.4162 15.5138 16.7534 14.8574 15.9385 14.8574ZM15.9385 19.1584C14.3646 19.1584 13.084 17.8852 13.084 16.3204C13.084 14.7557 14.3646 13.4824 15.9385 13.4824C17.5115 13.4824 18.7912 14.7557 18.7912 16.3204C18.7912 17.8852 17.5115 19.1584 15.9385 19.1584Z" fill="white"/>
</svg>
