<svg width="24" height="24" viewBox="0 0 24 24" fill="none" xmlns="http://www.w3.org/2000/svg">
<path d="M16.7733 10.7598C17.328 10.2051 17.328 9.31216 17.328 7.52635C17.328 5.74055 17.328 4.84765 16.7732 4.29288M16.7733 10.7598C16.2185 11.3146 15.3256 11.3146 13.5398 11.3146H9.75151C7.96571 11.3146 7.07281 11.3146 6.51803 10.7598M16.7733 10.7598C16.7733 10.7598 16.7733 10.7598 16.7733 10.7598ZM16.7732 4.29288C16.2185 3.7381 15.3256 3.7381 13.5398 3.7381L9.75151 3.7381C7.96571 3.7381 7.07281 3.7381 6.51803 4.29288M16.7732 4.29288C16.7732 4.29288 16.7732 4.29288 16.7732 4.29288ZM6.51803 4.29288C5.96326 4.84765 5.96326 5.74055 5.96326 7.52636C5.96326 9.31216 5.96326 10.2051 6.51803 10.7598M6.51803 4.29288C6.51803 4.29288 6.51803 4.29288 6.51803 4.29288ZM6.51803 10.7598C6.51803 10.7598 6.51803 10.7598 6.51803 10.7598Z" stroke="#2A2455" stroke-width="1.4206"/>
<path d="M12.5927 7.52635C12.5927 8.0494 12.1687 8.47341 11.6457 8.47341C11.1226 8.47341 10.6986 8.0494 10.6986 7.52635C10.6986 7.0033 11.1226 6.57928 11.6457 6.57928C12.1687 6.57928 12.5927 7.0033 12.5927 7.52635Z" stroke="#2A2455" stroke-width="1.4206"/>
<path d="M17.328 6.57929C15.7589 6.57929 14.4868 5.30725 14.4868 3.7381" stroke="#2A2455" stroke-width="1.4206" stroke-linecap="round"/>
<path d="M17.328 8.47342C15.7589 8.47342 14.4868 9.74546 14.4868 11.3146" stroke="#2A2455" stroke-width="1.4206" stroke-linecap="round"/>
<path d="M5.96326 6.57929C7.5324 6.57929 8.80445 5.30725 8.80445 3.7381" stroke="#2A2455" stroke-width="1.4206" stroke-linecap="round"/>
<path d="M5.96326 8.47342C7.5324 8.47342 8.80445 9.74546 8.80445 11.3146" stroke="#2A2455" stroke-width="1.4206" stroke-linecap="round"/>
<path d="M5.01624 20.206H7.15654C8.11389 20.206 9.08154 20.3058 10.0133 20.4977C11.6614 20.8373 13.3967 20.8784 15.0617 20.6089C15.8827 20.476 16.6898 20.2728 17.4204 19.9202C18.0799 19.6018 18.8878 19.1531 19.4305 18.6505C19.9724 18.1486 20.5367 17.3272 20.9373 16.6852C21.2807 16.1346 21.1146 15.4592 20.5713 15.0489C19.9678 14.5933 19.0723 14.5934 18.4689 15.0491L16.7574 16.3421C16.0941 16.8431 15.3695 17.3044 14.5064 17.4421C14.4026 17.4586 14.2938 17.4737 14.1804 17.4868M14.1804 17.4868C14.1462 17.4908 14.1116 17.4946 14.0766 17.4982M14.1804 17.4868C14.3184 17.4572 14.4556 17.3721 14.5842 17.2598C15.1933 16.7281 15.2319 15.8321 14.7033 15.2384C14.5807 15.1007 14.4372 14.9858 14.2776 14.8906C11.6284 13.3105 7.50646 14.514 5.01624 16.28M14.1804 17.4868C14.1458 17.4942 14.1112 17.4982 14.0766 17.4982M14.0766 17.4982C13.581 17.5491 13.0011 17.5622 12.3577 17.5015" stroke="#2A2455" stroke-width="1.4206" stroke-linecap="round"/>
<rect x="2.17505" y="14.1558" width="2.84119" height="7.57651" rx="1.4206" stroke="#2A2455" stroke-width="1.4206"/>
</svg>
