<svg xmlns="http://www.w3.org/2000/svg" width="72" height="52" viewBox="0 0 72 52" fill="none">
<path d="M0 19.5C0 8.72625 8.63036 0 19.2857 0H20.5714C23.4161 0 25.7143 2.32375 25.7143 5.2C25.7143 8.07625 23.4161 10.4 20.5714 10.4H19.2857C14.3196 10.4 10.2857 14.4787 10.2857 19.5V20.8H20.5714C26.2446 20.8 30.8571 25.4637 30.8571 31.2V41.6C30.8571 47.3362 26.2446 52 20.5714 52H10.2857C4.6125 52 0 47.3362 0 41.6V19.5ZM41.1429 19.5C41.1429 8.72625 49.7732 0 60.4286 0H61.7143C64.5589 0 66.8571 2.32375 66.8571 5.2C66.8571 8.07625 64.5589 10.4 61.7143 10.4H60.4286C55.4625 10.4 51.4286 14.4787 51.4286 19.5V20.8H61.7143C67.3875 20.8 72 25.4637 72 31.2V41.6C72 47.3362 67.3875 52 61.7143 52H51.4286C45.7554 52 41.1429 47.3362 41.1429 41.6V19.5Z" fill="#0075FF"/>
</svg>