<svg width="492" height="368" viewBox="0 0 492 368" fill="none" xmlns="http://www.w3.org/2000/svg">
<path d="M492 323.061H0V323.307H492V323.061Z" fill="#EBEBEB"/>
<path d="M442.703 338.893H410.113V339.139H442.703V338.893Z" fill="#EBEBEB"/>
<path d="M325.922 341.57H317.371V341.816H325.922V341.57Z" fill="#EBEBEB"/>
<path d="M409.129 329.762H390.246V330.008H409.129V329.762Z" fill="#EBEBEB"/>
<path d="M94.1201 331.415H51.6211V331.661H94.1201V331.415Z" fill="#EBEBEB"/>
<path d="M109.115 331.415H102.887V331.661H109.115V331.415Z" fill="#EBEBEB"/>
<path d="M221.548 335.568H129.367V335.814H221.548V335.568Z" fill="#EBEBEB"/>
<path d="M233.207 279.174H43.2065C41.718 279.172 40.2914 278.579 39.2398 277.525C38.1883 276.472 37.5977 275.044 37.5977 273.556V6.46873C37.6106 4.98882 38.2069 3.57378 39.2571 2.53098C40.3073 1.48817 41.7265 0.901827 43.2065 0.899292H233.207C234.697 0.899292 236.126 1.49125 237.18 2.54495C238.234 3.59865 238.826 5.02777 238.826 6.51793V273.556C238.826 275.046 238.234 276.475 237.18 277.529C236.126 278.583 234.697 279.174 233.207 279.174ZM43.2065 1.09609C41.7832 1.0987 40.4192 1.66589 39.4138 2.67318C38.4083 3.68046 37.8437 5.04552 37.8437 6.46873V273.556C37.8437 274.979 38.4083 276.344 39.4138 277.351C40.4192 278.359 41.7832 278.926 43.2065 278.928H233.207C234.631 278.926 235.996 278.359 237.003 277.352C238.01 276.345 238.577 274.98 238.58 273.556V6.46873C238.577 5.04462 238.01 3.67958 237.003 2.67257C235.996 1.66557 234.631 1.09869 233.207 1.09609H43.2065Z" fill="#EBEBEB"/>
<path d="M446.059 279.174H256.048C254.559 279.172 253.131 278.579 252.078 277.526C251.025 276.473 250.432 275.045 250.43 273.556V6.46873C250.445 4.98792 251.044 3.5729 252.095 2.53036C253.147 1.48783 254.567 0.9018 256.048 0.899292H446.059C447.537 0.904413 448.954 1.49191 450.002 2.53443C451.05 3.57696 451.645 4.99052 451.658 6.46873V273.556C451.658 275.043 451.068 276.469 450.019 277.522C448.97 278.575 447.545 279.169 446.059 279.174ZM256.048 1.09609C254.624 1.09869 253.259 1.66557 252.252 2.67257C251.245 3.67958 250.678 5.04462 250.676 6.46873V273.556C250.678 274.98 251.245 276.345 252.252 277.352C253.259 278.359 254.624 278.926 256.048 278.928H446.059C447.483 278.926 448.848 278.359 449.855 277.352C450.862 276.345 451.429 274.98 451.431 273.556V6.46873C451.429 5.04462 450.862 3.67958 449.855 2.67257C448.848 1.66557 447.483 1.09869 446.059 1.09609H256.048Z" fill="#EBEBEB"/>
<path d="M285.053 118.055L420.629 118.055V29.2685L285.053 29.2685V118.055Z" fill="#E6E6E6"/>
<path d="M280.912 118.055L418.691 118.055V29.2685L280.912 29.2685V118.055Z" fill="#F0F0F0"/>
<path d="M285.053 135.471L420.629 135.471V118.045L285.053 118.045V135.471Z" fill="#E6E6E6"/>
<path d="M274.033 135.471L411.812 135.471V118.045L274.033 118.045V135.471Z" fill="#F0F0F0"/>
<path d="M412.906 112.269V35.0643L286.708 35.0643V112.269L412.906 112.269Z" fill="#FAFAFA"/>
<path d="M384.449 112.259L368.331 35.0643H343.18L359.298 112.259H384.449Z" fill="white"/>
<path d="M410.23 106.502C410.285 106.502 410.339 106.491 410.39 106.47C410.441 106.448 410.487 106.417 410.526 106.378C410.564 106.338 410.594 106.291 410.614 106.24C410.635 106.189 410.644 106.134 410.643 106.079V38.8324C410.643 38.7227 410.6 38.6176 410.522 38.5401C410.445 38.4626 410.339 38.4191 410.23 38.4191C410.175 38.4177 410.121 38.4275 410.07 38.4478C410.019 38.4681 409.973 38.4985 409.935 38.5371C409.896 38.5758 409.866 38.6219 409.845 38.6726C409.825 38.7234 409.815 38.7777 409.817 38.8324V106.079C409.815 106.134 409.825 106.189 409.845 106.24C409.865 106.291 409.896 106.338 409.934 106.378C409.973 106.417 410.019 106.448 410.069 106.47C410.12 106.491 410.175 106.502 410.23 106.502Z" fill="#F0F0F0"/>
<path d="M353.897 112.259L337.779 35.0643H327.969L344.097 112.259H353.897Z" fill="white"/>
<path d="M287.445 112.269V35.0643H286.707V112.269H287.445Z" fill="#E6E6E6"/>
<path opacity="0.6" d="M279.555 43.7923H415.13L415.662 37.3077H280.086L279.555 43.7923Z" fill="#EBEBEB"/>
<path opacity="0.6" d="M279.555 54.4193H415.13L415.662 47.9446H280.086L279.555 54.4193Z" fill="#EBEBEB"/>
<path opacity="0.6" d="M279.555 65.0463H415.13L415.662 58.5715H280.086L279.555 65.0463Z" fill="#EBEBEB"/>
<path opacity="0.6" d="M279.555 75.683H415.13L415.662 69.1985H280.086L279.555 75.683Z" fill="#EBEBEB"/>
<path opacity="0.6" d="M279.555 86.3101H415.13L415.662 79.8256H280.086L279.555 86.3101Z" fill="#EBEBEB"/>
<path opacity="0.6" d="M279.555 96.9383H415.13L415.662 90.4537H280.086L279.555 96.9383Z" fill="#EBEBEB"/>
<path d="M401.166 258.491H372.738V264.1H401.166V258.491Z" fill="#E6E6E6"/>
<path d="M319.122 323.061H324.367V194.088H319.122V323.061Z" fill="#E6E6E6"/>
<path d="M300.938 264.1H372.73V258.491H300.938V264.1Z" fill="#F5F5F5"/>
<path d="M401.166 289.162H372.738V294.771H401.166V289.162Z" fill="#E6E6E6"/>
<path d="M300.938 294.761H372.73V289.153H300.938V294.761Z" fill="#F5F5F5"/>
<path d="M401.166 197.158H372.738V202.767H401.166V197.158Z" fill="#E6E6E6"/>
<path d="M300.938 202.757H372.73V197.148H300.938V202.757Z" fill="#F5F5F5"/>
<path d="M401.166 227.82H372.738V233.429H401.166V227.82Z" fill="#E6E6E6"/>
<path d="M300.938 233.429H372.73V227.82H300.938V233.429Z" fill="#F5F5F5"/>
<path d="M390.923 323.061H396.168V194.088H390.923V323.061Z" fill="#E6E6E6"/>
<path d="M367.486 323.061H372.73V194.088H367.486V323.061Z" fill="#F5F5F5"/>
<path d="M300.935 323.061H306.18V194.088H300.935V323.061Z" fill="#F5F5F5"/>
<path d="M64.3323 323.061H118.039L118.039 218.865H64.3323L64.3323 323.061Z" fill="#E6E6E6"/>
<path d="M78.6709 323.061H64.3242V308.675H93.7065L78.6709 323.061Z" fill="#FAFAFA"/>
<path d="M210.754 323.061H264.461V218.865H210.754V323.061Z" fill="#E6E6E6"/>
<path d="M64.3357 318.101H223.281V218.855H64.3357V318.101Z" fill="#FAFAFA"/>
<path d="M208.934 323.061H223.271V308.675H193.898L208.934 323.061Z" fill="#FAFAFA"/>
<path d="M75.4511 280.68H212.148V255.844L75.4511 255.844V280.68Z" fill="#F0F0F0"/>
<path d="M75.4511 310.82H212.148V285.984H75.4511V310.82Z" fill="#F0F0F0"/>
<path d="M186.171 258.501H101.439C100.244 258.501 99.0973 258.026 98.2521 257.181C97.4069 256.336 96.9321 255.189 96.9321 253.994V253.689H190.668V253.994C190.668 255.188 190.195 256.332 189.351 257.177C188.508 258.022 187.365 258.498 186.171 258.501Z" fill="#FAFAFA"/>
<path d="M75.4511 250.53L212.148 250.53V225.694L75.4511 225.694V250.53Z" fill="#F0F0F0"/>
<path d="M186.171 228.351H101.439C100.244 228.351 99.0973 227.876 98.2521 227.031C97.4069 226.186 96.9321 225.039 96.9321 223.844V223.539H190.668V223.844C190.668 225.038 190.195 226.182 189.351 227.027C188.508 227.872 187.365 228.348 186.171 228.351Z" fill="#FAFAFA"/>
<path d="M186.171 288.651H101.439C100.244 288.651 99.0973 288.176 98.2521 287.331C97.4069 286.486 96.9321 285.339 96.9321 284.144V283.839H190.668V284.144C190.668 285.338 190.195 286.482 189.351 287.327C188.508 288.172 187.365 288.648 186.171 288.651Z" fill="#FAFAFA"/>
<path d="M72.8854 118.055L208.461 118.055V29.2685L72.8854 29.2685V118.055Z" fill="#E6E6E6"/>
<path d="M68.7516 118.055L206.531 118.055V29.2685L68.7516 29.2685V118.055Z" fill="#F0F0F0"/>
<path d="M72.8854 135.471L208.461 135.471V118.045L72.8854 118.045V135.471Z" fill="#E6E6E6"/>
<path d="M61.8531 135.471L199.633 135.471V118.045L61.8531 118.045V135.471Z" fill="#F0F0F0"/>
<path d="M200.734 112.269V35.0643L74.5364 35.0643V112.269L200.734 112.269Z" fill="#FAFAFA"/>
<path d="M172.277 112.259L156.159 35.0643H131.008L147.126 112.259H172.277Z" fill="white"/>
<path d="M198.05 106.502C198.105 106.502 198.16 106.491 198.211 106.47C198.261 106.448 198.307 106.417 198.346 106.378C198.384 106.338 198.415 106.291 198.435 106.24C198.455 106.189 198.465 106.134 198.463 106.079V38.8324C198.465 38.7777 198.455 38.7234 198.435 38.6726C198.414 38.6219 198.384 38.5758 198.345 38.5371C198.307 38.4985 198.261 38.4681 198.21 38.4478C198.159 38.4275 198.105 38.4177 198.05 38.4191C197.941 38.4191 197.835 38.4626 197.758 38.5401C197.68 38.6176 197.637 38.7227 197.637 38.8324V106.079C197.636 106.134 197.645 106.189 197.665 106.24C197.686 106.291 197.716 106.338 197.754 106.378C197.793 106.417 197.839 106.448 197.89 106.47C197.94 106.491 197.995 106.502 198.05 106.502Z" fill="#F0F0F0"/>
<path d="M141.725 112.259L125.607 35.0643H115.797L131.915 112.259H141.725Z" fill="white"/>
<path d="M75.2773 112.269V35.0643H74.5393V112.269H75.2773Z" fill="#E6E6E6"/>
<path opacity="0.6" d="M67.375 43.7923H202.951L203.482 37.3077H67.9064L67.375 43.7923Z" fill="#EBEBEB"/>
<path opacity="0.6" d="M67.375 47.4525H202.951L203.482 40.9679H67.9064L67.375 47.4525Z" fill="#EBEBEB"/>
<path opacity="0.6" d="M67.375 51.1028H202.951L203.482 44.6281H67.9064L67.375 51.1028Z" fill="#EBEBEB"/>
<path opacity="0.6" d="M67.375 54.763H202.951L203.482 48.2784H67.9064L67.375 54.763Z" fill="#EBEBEB"/>
<path opacity="0.6" d="M67.375 58.4145H202.951L203.482 51.9398H67.9064L67.375 58.4145Z" fill="#EBEBEB"/>
<path opacity="0.6" d="M67.375 62.0748H202.951L203.482 55.5902H67.9064L67.375 62.0748Z" fill="#EBEBEB"/>
<path d="M94.4841 215.677H99.168V163.437H94.4841V215.677Z" fill="#F5F5F5"/>
<path d="M95.0739 215.648H96.4023V163.407H95.0739V215.648Z" fill="#FAFAFA"/>
<path d="M96.955 215.648H97.4766V163.407H96.955V215.648Z" fill="#FAFAFA"/>
<path d="M114.172 218.865H79.4957C79.4957 217.706 79.956 216.595 80.7754 215.775C81.5947 214.956 82.706 214.496 83.8647 214.496H109.793C110.952 214.496 112.063 214.956 112.882 215.775C113.702 216.595 114.162 217.706 114.162 218.865H114.172Z" fill="#F0F0F0"/>
<path d="M88.4009 195.869C88.7576 195.866 89.099 195.723 89.3513 195.471C89.6035 195.219 89.7464 194.877 89.749 194.521V160.307C89.749 159.949 89.6069 159.606 89.3541 159.354C89.1013 159.101 88.7584 158.959 88.4009 158.959C88.223 158.957 88.0467 158.991 87.882 159.059C87.7173 159.126 87.5675 159.225 87.4413 159.35C87.3151 159.475 87.2149 159.624 87.1465 159.789C87.0782 159.953 87.043 160.129 87.043 160.307V194.56C87.0557 194.911 87.2044 195.244 87.4577 195.488C87.711 195.733 88.0491 195.869 88.4009 195.869Z" fill="#F0F0F0"/>
<path d="M75.8359 175.855H117.804L112.972 146.532H80.6674L75.8359 175.855Z" fill="#E0E0E0"/>
<path d="M236.622 71.8462C283.952 77.1402 304.724 36.1074 351.632 41.48C393.491 46.2721 422.361 76.0971 412.59 116.264C403.911 151.924 362.593 163.112 347.902 196.519C332.325 231.943 320.252 270.112 273.217 282.442C180.868 306.648 136.008 193.016 129.72 127.747C127.309 102.695 123.098 42.7986 155.806 35.0446C188.72 27.2317 207.623 68.599 236.622 71.8462Z" fill="#0075FF"/>
<path opacity="0.9" d="M236.622 71.8462C283.952 77.1402 304.724 36.1074 351.632 41.48C393.491 46.2721 422.361 76.0971 412.59 116.264C403.911 151.924 362.593 163.112 347.902 196.519C332.325 231.943 320.252 270.112 273.217 282.442C180.868 306.648 136.008 193.016 129.72 127.747C127.309 102.695 123.098 42.7986 155.806 35.0446C188.72 27.2317 207.623 68.599 236.622 71.8462Z" fill="white"/>
<path d="M245.999 367.498C351.368 367.498 436.786 362.511 436.786 356.359C436.786 350.207 351.368 345.22 245.999 345.22C140.63 345.22 55.2109 350.207 55.2109 356.359C55.2109 362.511 140.63 367.498 245.999 367.498Z" fill="#F5F5F5"/>
<path d="M102.454 145.901L101.473 145.972L102.78 164.119L103.761 164.048L102.454 145.901Z" fill="#0075FF"/>
<path d="M104.427 173.416L103.445 173.487L103.937 180.318L104.919 180.247L104.427 173.416Z" fill="#0075FF"/>
<path d="M332.306 256.897H121.573C119.227 256.855 116.98 255.946 115.265 254.345C113.55 252.745 112.488 250.565 112.284 248.228L101.932 104.436C101.836 103.327 101.973 102.211 102.335 101.158C102.696 100.105 103.274 99.1397 104.032 98.3239C104.789 97.5082 105.709 96.8601 106.732 96.4215C107.755 95.9828 108.858 95.7633 109.972 95.7771H320.705C323.049 95.819 325.295 96.7268 327.01 98.3255C328.725 99.9242 329.788 102.101 329.994 104.436L340.346 248.228C340.442 249.338 340.305 250.455 339.943 251.508C339.582 252.561 339.004 253.527 338.247 254.344C337.489 255.16 336.57 255.809 335.547 256.249C334.524 256.689 333.42 256.91 332.306 256.897Z" fill="#0075FF"/>
<path d="M333.115 256.897H122.381C120.036 256.855 117.789 255.946 116.073 254.345C114.358 252.745 113.296 250.565 113.092 248.228L102.741 104.436C102.645 103.327 102.782 102.211 103.143 101.158C103.505 100.105 104.083 99.1397 104.84 98.3239C105.598 97.5082 106.517 96.8601 107.54 96.4215C108.563 95.9828 109.667 95.7633 110.78 95.7771H321.514C323.858 95.819 326.104 96.7268 327.819 98.3255C329.533 99.9242 330.596 102.101 330.802 104.436L341.154 248.228C341.252 249.338 341.116 250.456 340.755 251.51C340.394 252.564 339.816 253.53 339.059 254.347C338.301 255.164 337.381 255.813 336.357 256.252C335.333 256.691 334.229 256.911 333.115 256.897Z" fill="#0075FF"/>
<path opacity="0.5" d="M333.115 256.897H122.381C120.036 256.855 117.789 255.946 116.073 254.345C114.358 252.745 113.296 250.565 113.092 248.228L102.741 104.436C102.645 103.327 102.782 102.211 103.143 101.158C103.505 100.105 104.083 99.1397 104.84 98.3239C105.598 97.5082 106.517 96.8601 107.54 96.4215C108.563 95.9828 109.667 95.7633 110.78 95.7771H321.514C323.858 95.819 326.104 96.7268 327.819 98.3255C329.533 99.9242 330.596 102.101 330.802 104.436L341.154 248.228C341.252 249.338 341.116 250.456 340.755 251.51C340.394 252.564 339.816 253.53 339.059 254.347C338.301 255.164 337.381 255.813 336.357 256.252C335.333 256.691 334.229 256.911 333.115 256.897Z" fill="white"/>
<path d="M321.829 100.107H111.095H110.387C105.004 100.55 106.106 108.746 111.538 108.746H322.626C328.067 108.746 327.988 100.55 322.537 100.107H321.829Z" fill="#0075FF"/>
<path d="M116.587 104.437C116.608 104.69 116.575 104.946 116.491 105.186C116.407 105.426 116.273 105.646 116.099 105.831C115.925 106.017 115.713 106.164 115.479 106.262C115.244 106.361 114.991 106.41 114.737 106.405C114.202 106.397 113.689 106.192 113.297 105.829C112.904 105.465 112.66 104.969 112.611 104.437C112.591 104.184 112.623 103.93 112.707 103.69C112.79 103.45 112.923 103.231 113.096 103.046C113.269 102.86 113.479 102.713 113.713 102.614C113.946 102.515 114.198 102.465 114.452 102.469C114.988 102.474 115.504 102.678 115.898 103.042C116.293 103.405 116.538 103.902 116.587 104.437Z" fill="#FAFAFA"/>
<path d="M123.345 104.437C123.365 104.69 123.333 104.946 123.249 105.186C123.164 105.426 123.031 105.646 122.857 105.831C122.682 106.017 122.471 106.164 122.236 106.262C122.002 106.361 121.749 106.41 121.495 106.405C120.96 106.397 120.447 106.192 120.054 105.829C119.662 105.465 119.418 104.969 119.369 104.437C119.349 104.184 119.381 103.93 119.465 103.69C119.548 103.45 119.681 103.231 119.854 103.046C120.027 102.86 120.237 102.713 120.471 102.614C120.704 102.515 120.956 102.465 121.209 102.469C121.746 102.474 122.261 102.678 122.656 103.042C123.05 103.405 123.296 103.902 123.345 104.437Z" fill="#FAFAFA"/>
<path d="M130.097 104.437C130.118 104.69 130.086 104.944 130.002 105.184C129.919 105.423 129.786 105.643 129.613 105.828C129.439 106.013 129.229 106.16 128.996 106.26C128.763 106.359 128.511 106.408 128.257 106.405C127.722 106.4 127.208 106.195 126.815 105.831C126.422 105.467 126.178 104.97 126.132 104.437C126.11 104.184 126.141 103.929 126.224 103.688C126.307 103.448 126.439 103.228 126.613 103.043C126.787 102.857 126.997 102.71 127.231 102.611C127.466 102.512 127.718 102.464 127.972 102.469C128.507 102.476 129.02 102.682 129.412 103.045C129.805 103.408 130.049 103.904 130.097 104.437Z" fill="#FAFAFA"/>
<path d="M327.524 242.55H125.952C125.1 242.536 124.284 242.206 123.663 241.624C123.041 241.042 122.657 240.25 122.587 239.401L114.075 121.154C114.037 120.748 114.086 120.339 114.218 119.954C114.351 119.568 114.563 119.215 114.843 118.918C115.122 118.622 115.461 118.387 115.838 118.232C116.214 118.076 116.62 118.002 117.027 118.015H318.649C319.499 118.027 320.315 118.355 320.937 118.935C321.559 119.515 321.943 120.306 322.014 121.154L330.535 239.401C330.572 239.812 330.521 240.226 330.384 240.616C330.248 241.005 330.03 241.361 329.745 241.659C329.46 241.958 329.114 242.191 328.731 242.345C328.348 242.499 327.936 242.569 327.524 242.55Z" fill="white"/>
<path d="M242.586 197.503L239.3 151.924L229.361 145.941H201.996L205.716 197.503H242.586Z" fill="white"/>
<path d="M242.587 197.976H205.716C205.594 197.978 205.476 197.934 205.386 197.851C205.296 197.769 205.242 197.655 205.234 197.533L201.525 145.971C201.52 145.906 201.529 145.841 201.551 145.78C201.573 145.719 201.608 145.664 201.653 145.617C201.696 145.568 201.749 145.529 201.808 145.502C201.868 145.475 201.932 145.461 201.997 145.459H229.362C229.448 145.462 229.533 145.486 229.608 145.528L239.546 151.511C239.613 151.549 239.67 151.603 239.711 151.669C239.752 151.734 239.777 151.808 239.783 151.885L243.049 197.464C243.056 197.53 243.048 197.597 243.026 197.66C243.004 197.723 242.968 197.78 242.922 197.828C242.879 197.874 242.827 197.911 242.769 197.936C242.712 197.962 242.65 197.975 242.587 197.976ZM206.179 196.992H242.065L238.838 152.17L229.273 146.414H202.509L206.179 196.992Z" fill="#0075FF"/>
<path d="M239.302 151.924L229.363 145.941L233.014 153.872L239.302 151.924Z" fill="#EBEBEB"/>
<path d="M233.011 154.345C232.92 154.344 232.831 154.318 232.755 154.27C232.678 154.221 232.617 154.151 232.578 154.069L228.927 146.138C228.885 146.045 228.872 145.941 228.892 145.841C228.911 145.74 228.961 145.648 229.036 145.578C229.114 145.511 229.211 145.47 229.313 145.461C229.415 145.452 229.518 145.476 229.606 145.528L239.545 151.511C239.625 151.559 239.69 151.629 239.732 151.713C239.773 151.796 239.79 151.89 239.781 151.983C239.768 152.074 239.73 152.159 239.671 152.229C239.612 152.298 239.534 152.35 239.446 152.377L233.149 154.345H233.011ZM230.443 147.142L233.267 153.292L238.187 151.787L230.443 147.142Z" fill="#0075FF"/>
<path d="M217.466 169.164C217.481 169.431 217.441 169.699 217.348 169.95C217.256 170.202 217.113 170.432 216.929 170.626C216.745 170.821 216.523 170.975 216.277 171.081C216.031 171.186 215.766 171.241 215.498 171.24C214.936 171.23 214.398 171.012 213.987 170.629C213.577 170.246 213.323 169.724 213.274 169.164C213.249 168.894 213.281 168.621 213.369 168.365C213.458 168.108 213.6 167.873 213.786 167.676C213.972 167.478 214.198 167.323 214.45 167.22C214.701 167.117 214.971 167.068 215.242 167.078C215.805 167.09 216.343 167.31 216.753 167.695C217.164 168.08 217.417 168.603 217.466 169.164Z" fill="#0075FF"/>
<path d="M230.947 169.164C230.971 169.434 230.938 169.705 230.849 169.96C230.76 170.216 230.617 170.449 230.431 170.646C230.245 170.842 230.02 170.997 229.769 171.099C229.519 171.202 229.25 171.25 228.979 171.24C228.417 171.23 227.877 171.013 227.465 170.63C227.053 170.247 226.797 169.725 226.746 169.164C226.73 168.896 226.769 168.627 226.86 168.375C226.952 168.122 227.094 167.891 227.279 167.696C227.463 167.5 227.686 167.344 227.932 167.238C228.179 167.132 228.445 167.078 228.714 167.078C229.279 167.086 229.821 167.304 230.234 167.69C230.646 168.075 230.901 168.601 230.947 169.164Z" fill="#0075FF"/>
<path d="M234.766 182.684C234.646 182.682 234.532 182.635 234.444 182.553C234.357 182.472 234.303 182.36 234.293 182.241C234.047 178.885 228.793 176.16 222.584 176.16C218.461 176.16 214.761 177.39 212.931 179.358C212.555 179.72 212.26 180.159 212.067 180.644C211.873 181.129 211.786 181.65 211.809 182.172C211.814 182.237 211.805 182.302 211.785 182.363C211.764 182.424 211.732 182.481 211.689 182.53C211.603 182.629 211.482 182.689 211.351 182.698C211.221 182.708 211.092 182.665 210.993 182.579C210.895 182.493 210.834 182.371 210.825 182.241C210.796 181.589 210.903 180.937 211.14 180.329C211.378 179.721 211.739 179.169 212.203 178.708C214.171 176.553 218.176 175.205 222.554 175.205C229.373 175.205 234.933 178.266 235.209 182.172C235.213 182.234 235.204 182.296 235.184 182.355C235.164 182.414 235.133 182.468 235.091 182.515C235.05 182.562 235 182.6 234.944 182.627C234.889 182.654 234.828 182.67 234.766 182.674V182.684Z" fill="#0075FF"/>
<path d="M209.761 164.952C209.641 164.95 209.526 164.905 209.437 164.824C209.347 164.734 209.297 164.612 209.297 164.485C209.297 164.358 209.347 164.236 209.437 164.146L211.533 161.892C211.622 161.806 211.742 161.757 211.867 161.757C211.992 161.757 212.112 161.806 212.202 161.892C212.246 161.936 212.281 161.988 212.305 162.046C212.328 162.103 212.341 162.165 212.341 162.227C212.341 162.289 212.328 162.35 212.305 162.408C212.281 162.465 212.246 162.517 212.202 162.561L210.106 164.815C210.061 164.86 210.007 164.895 209.948 164.919C209.888 164.942 209.825 164.954 209.761 164.952Z" fill="#0075FF"/>
<path d="M233.782 164.952C233.662 164.947 233.548 164.902 233.457 164.824L231.046 162.571C231.001 162.527 230.965 162.474 230.94 162.416C230.915 162.358 230.902 162.295 230.902 162.232C230.902 162.168 230.915 162.106 230.94 162.047C230.965 161.989 231.001 161.936 231.046 161.892C231.136 161.806 231.256 161.757 231.381 161.757C231.506 161.757 231.626 161.806 231.715 161.892L234.126 164.146C234.17 164.189 234.205 164.242 234.229 164.299C234.253 164.356 234.265 164.418 234.265 164.48C234.265 164.542 234.253 164.604 234.229 164.661C234.205 164.719 234.17 164.771 234.126 164.815C234.033 164.902 233.91 164.951 233.782 164.952Z" fill="#0075FF"/>
<path d="M199.023 207.688H201.247L204.455 211.958L204.15 207.688H206.394L206.945 215.402H204.672L201.483 211.161L201.788 215.402H199.545L199.023 207.688Z" fill="#0075FF"/>
<path d="M207.949 211.545C207.873 211.021 207.909 210.487 208.055 209.978C208.201 209.469 208.453 208.997 208.795 208.593C209.169 208.225 209.617 207.941 210.109 207.76C210.601 207.578 211.126 207.503 211.649 207.54C212.757 207.48 213.847 207.85 214.689 208.573C215.461 209.342 215.908 210.377 215.939 211.466C216.02 212.217 215.919 212.977 215.644 213.68C215.389 214.247 214.962 214.719 214.424 215.028C213.777 215.375 213.05 215.541 212.318 215.511C211.565 215.534 210.816 215.393 210.123 215.097C209.517 214.806 209.005 214.349 208.647 213.779C208.225 213.107 207.985 212.337 207.949 211.545ZM210.34 211.545C210.33 212.149 210.525 212.738 210.891 213.218C211.045 213.387 211.234 213.521 211.444 213.609C211.655 213.697 211.883 213.738 212.111 213.729C212.329 213.745 212.548 213.707 212.748 213.62C212.949 213.532 213.125 213.398 213.262 213.228C213.545 212.69 213.639 212.073 213.528 211.476C213.532 210.897 213.338 210.335 212.977 209.882C212.819 209.716 212.628 209.585 212.416 209.499C212.204 209.412 211.976 209.372 211.747 209.38C211.533 209.371 211.32 209.412 211.125 209.501C210.93 209.59 210.759 209.724 210.625 209.892C210.337 210.399 210.236 210.991 210.34 211.565V211.545Z" fill="#0075FF"/>
<path d="M220.566 207.687H224.109C224.693 207.669 225.275 207.766 225.821 207.973C226.253 208.154 226.638 208.434 226.943 208.789C227.253 209.151 227.49 209.568 227.641 210.019C227.801 210.504 227.9 211.006 227.937 211.515C228.012 212.158 227.962 212.81 227.789 213.434C227.653 213.866 227.413 214.258 227.09 214.575C226.821 214.861 226.482 215.071 226.106 215.185C225.649 215.318 225.176 215.391 224.699 215.402H221.167L220.566 207.687ZM223.076 209.439L223.381 213.65H223.961C224.32 213.674 224.68 213.617 225.014 213.483C225.234 213.355 225.397 213.147 225.467 212.903C225.579 212.466 225.606 212.011 225.545 211.564C225.564 210.964 225.381 210.375 225.024 209.891C224.841 209.726 224.626 209.601 224.392 209.523C224.159 209.445 223.911 209.416 223.666 209.439H223.076Z" fill="#0075FF"/>
<path d="M233.652 214.123H230.946L230.661 215.402H228.23L230.572 207.688H233.21L236.663 215.402H234.164L233.652 214.123ZM233.032 212.46L231.989 209.685L231.34 212.46H233.032Z" fill="#0075FF"/>
<path d="M235.543 207.688H242.785L242.923 209.596H240.492L240.906 215.402H238.524L238.111 209.596H235.681L235.543 207.688Z" fill="#0075FF"/>
<path d="M248.332 214.123H245.626L245.341 215.402H242.91L245.252 207.688H247.85L251.294 215.402H248.804L248.332 214.123ZM247.712 212.46L246.659 209.685L246 212.46H247.712Z" fill="#0075FF"/>
<path d="M348.031 117.09C348.907 116.648 349.999 116.106 350.924 115.546C351.849 114.985 352.892 114.443 353.876 113.853C355.795 112.662 357.743 111.491 359.583 110.193C363.279 107.664 366.743 104.812 369.935 101.671C370.339 101.297 370.693 100.884 371.077 100.481L371.637 99.8803L371.913 99.5851L372.051 99.4276C371.913 99.6933 372.051 99.6146 372.051 99.3587C372.137 99.0073 372.187 98.6479 372.198 98.2862C372.176 96.1939 371.935 94.1097 371.48 92.0673C370.604 87.659 369.276 83.1129 367.967 78.6652L371.785 76.9924C374.195 81.2597 376.207 85.7393 377.797 90.3748C378.69 92.8799 379.259 95.4891 379.49 98.1386C379.55 98.9624 379.524 99.7902 379.411 100.608C379.265 101.765 378.854 102.873 378.211 103.846L378.043 104.072L377.915 104.23L377.768 104.417L377.463 104.79L376.853 105.528C376.449 106.011 376.056 106.512 375.623 106.975C372.257 110.709 368.504 114.074 364.425 117.012C362.457 118.468 360.371 119.865 358.235 121.135C357.182 121.774 356.11 122.384 355.018 122.985C353.925 123.585 352.863 124.136 351.603 124.726L348.031 117.09Z" fill="#FFB573"/>
<path d="M339.276 348.429C340.012 348.41 340.745 348.311 341.46 348.134C341.496 348.123 341.529 348.102 341.555 348.075C341.581 348.047 341.599 348.013 341.608 347.976C341.613 347.939 341.607 347.9 341.591 347.865C341.576 347.831 341.551 347.801 341.519 347.779C341.234 347.593 338.734 345.979 337.77 346.412C337.663 346.462 337.572 346.539 337.504 346.636C337.437 346.732 337.396 346.845 337.386 346.963C337.348 347.148 337.358 347.341 337.414 347.522C337.471 347.702 337.573 347.866 337.711 347.996C338.163 348.325 338.719 348.478 339.276 348.429ZM340.899 347.858C339.472 348.144 338.39 348.094 337.947 347.711C337.859 347.62 337.794 347.508 337.76 347.386C337.725 347.264 337.722 347.136 337.75 347.012C337.754 346.96 337.771 346.91 337.801 346.866C337.83 346.823 337.871 346.788 337.918 346.766C338.439 346.54 339.886 347.268 340.899 347.858Z" fill="#0075FF"/>
<path d="M341.449 348.134H341.547C341.576 348.116 341.6 348.092 341.617 348.063C341.634 348.033 341.644 348.001 341.645 347.967C341.645 347.858 341.645 345.487 340.74 344.7C340.632 344.595 340.501 344.517 340.358 344.471C340.214 344.425 340.063 344.412 339.914 344.434C339.758 344.435 339.608 344.49 339.488 344.588C339.368 344.687 339.286 344.823 339.254 344.975C339.067 345.959 340.563 347.681 341.35 348.134C341.382 348.143 341.416 348.143 341.449 348.134ZM340.042 344.798C340.202 344.799 340.356 344.858 340.474 344.966C340.994 345.731 341.262 346.639 341.242 347.563C340.455 346.934 339.52 345.595 339.638 345.034C339.638 344.946 339.707 344.828 339.953 344.798H340.042Z" fill="#0075FF"/>
<path d="M340.681 92.4807C339.697 97.4007 337.729 107.241 341.124 110.537C341.124 110.537 339.786 115.457 330.704 115.457C320.706 115.457 325.931 110.537 325.931 110.537C331.383 109.238 331.235 105.194 330.29 101.386L340.681 92.4807Z" fill="#FFB573"/>
<path d="M324.012 112.505C322.448 112.721 323.786 108.657 324.416 108.234C325.892 107.25 344.942 105.882 344.814 108.234C344.735 109.218 344.263 111.186 343.437 111.835C342.61 112.485 337.71 110.458 324.012 112.505Z" fill="#263238"/>
<path d="M327.123 111.107C325.873 111.53 325.991 107.437 326.414 106.945C327.398 105.803 342.818 101.848 343.27 104.081C343.448 105.065 343.536 107.033 343.005 107.732C342.473 108.431 337.947 107.279 327.123 111.107Z" fill="#263238"/>
<path d="M321.386 83.6639C321.324 83.6666 321.262 83.6546 321.206 83.629C321.149 83.6033 321.1 83.5647 321.061 83.5163C320.761 83.1291 320.374 82.8178 319.931 82.6076C319.488 82.3974 319.002 82.2941 318.512 82.306C318.461 82.3128 318.409 82.3093 318.359 82.2955C318.31 82.2818 318.263 82.2581 318.223 82.2259C318.182 82.1938 318.149 82.1538 318.124 82.1084C318.099 82.0629 318.084 82.013 318.079 81.9616C318.071 81.8602 318.102 81.7595 318.166 81.6807C318.231 81.6018 318.323 81.5508 318.424 81.5384C319.043 81.5068 319.661 81.6254 320.225 81.8842C320.789 82.1429 321.281 82.534 321.661 83.0243C321.727 83.1042 321.759 83.2068 321.75 83.3099C321.741 83.4131 321.691 83.5084 321.612 83.5753C321.545 83.6233 321.467 83.6538 321.386 83.6639Z" fill="#263238"/>
<path d="M319.476 88.4756C319.029 90.0454 318.367 91.5456 317.508 92.9331C317.869 93.1406 318.271 93.2666 318.685 93.3023C319.1 93.338 319.518 93.2825 319.909 93.1398L319.476 88.4756Z" fill="#FF5652"/>
<path d="M319.959 87.2847C320.028 87.944 319.723 88.5147 319.29 88.5541C318.857 88.5935 318.453 88.1015 318.394 87.4323C318.335 86.7632 318.63 86.2023 319.053 86.163C319.477 86.1236 319.89 86.6156 319.959 87.2847Z" fill="#263238"/>
<path d="M319.251 86.1824L317.617 85.8773C317.617 85.8773 318.552 87.0384 319.251 86.1824Z" fill="#263238"/>
<path d="M350.996 347.946H342.75L343.399 328.857H351.645L350.996 347.946Z" fill="#FFB573"/>
<path d="M342.098 346.993H351.358C351.517 346.989 351.673 347.044 351.795 347.147C351.916 347.251 351.995 347.395 352.017 347.554L353.07 354.874C353.091 355.06 353.072 355.247 353.015 355.424C352.958 355.602 352.865 355.765 352.74 355.904C352.616 356.042 352.463 356.153 352.293 356.228C352.122 356.303 351.938 356.342 351.751 356.341C348.524 356.291 346.969 356.095 342.895 356.095C340.386 356.095 336.726 356.36 333.272 356.36C329.818 356.36 329.621 352.936 331.068 352.631C337.523 351.234 338.546 349.325 340.721 347.494C341.108 347.173 341.595 346.995 342.098 346.993Z" fill="#263238"/>
<g opacity="0.2">
<path d="M351.643 328.856H343.397L343.062 338.696H351.308L351.643 328.856Z" fill="black"/>
</g>
<path d="M318.198 121.931C313.152 119.969 308.21 117.753 303.389 115.289C298.409 112.856 293.666 109.967 289.219 106.66C288.031 105.729 286.907 104.72 285.854 103.639C285.578 103.344 285.303 103.068 285.037 102.724C284.725 102.372 284.436 102 284.171 101.612C283.445 100.555 282.993 99.3342 282.853 98.0595C282.744 96.851 282.909 95.6336 283.335 94.4974C283.676 93.5842 284.143 92.7231 284.722 91.939C285.673 90.6392 286.795 89.4741 288.058 88.4753C290.288 86.7 292.695 85.16 295.241 83.8801C296.461 83.2306 297.701 82.6501 298.961 82.1089C300.22 81.5677 301.46 81.056 302.808 80.5935L304.55 84.3819C300.26 87.0879 295.812 90.0694 292.545 93.3953C291.814 94.1362 291.17 94.9582 290.626 95.8455C290.154 96.6229 290.164 97.2034 290.243 97.1542C290.321 97.105 290.243 97.1542 290.38 97.2526L290.774 97.6757C290.922 97.8529 291.128 98.03 291.315 98.2169C292.149 98.9841 293.033 99.6942 293.962 100.342C295.993 101.781 298.11 103.095 300.299 104.278C302.513 105.518 304.796 106.689 307.118 107.811C311.763 110.035 316.565 112.17 321.278 114.118L318.198 121.931Z" fill="#FFB573"/>
<path d="M307.008 81.7347L308.366 78.7827L302.147 76.6671C302.147 76.6671 300.179 82.4826 302.511 85.159C303.486 85.0056 304.407 84.6123 305.192 84.0146C305.977 83.4169 306.601 82.6334 307.008 81.7347Z" fill="#FFB573"/>
<path d="M308.338 72.3973L303.388 70.9607L302.148 76.6285L308.338 78.7835V72.3973Z" fill="#FFB573"/>
<path d="M372.299 79.0683L373.017 72.1803L366.641 73.7153C366.641 73.7153 366.543 80.1901 369.918 81.2134L372.299 79.0683Z" fill="#FFB573"/>
<path d="M369.947 67.3301L365.785 69.2686L366.641 73.667L373.018 72.1615L369.947 67.3301Z" fill="#FFB573"/>
<path d="M341.981 82.8181C342.286 90.9951 342.581 94.449 338.891 99.0246C333.332 105.913 323.226 104.486 320.49 96.5646C318.03 89.4404 317.952 77.2683 325.588 73.2536C327.266 72.361 329.145 71.9122 331.046 71.9497C332.947 71.9872 334.807 72.5098 336.449 73.468C338.092 74.4261 339.462 75.788 340.43 77.4244C341.398 79.0608 341.932 80.9174 341.981 82.8181Z" fill="#FFB573"/>
<path d="M338.418 99.0146C346.447 95.5411 351.722 88.1906 349.498 76.7959C347.363 65.8637 339.983 64.7813 336.932 67.0445C333.882 69.3077 326.275 65.9325 321.71 69.7701C313.838 76.4318 321.277 83.5461 325.173 87.8462C327.496 92.6285 330.546 102.409 338.418 99.0146Z" fill="#263238"/>
<path d="M335.082 74.8379C336.062 76.0944 337.388 77.0366 338.896 77.5482C340.405 78.0597 342.031 78.1183 343.573 77.7166C345.114 77.3148 346.505 76.4704 347.572 75.2876C348.639 74.1048 349.337 72.6353 349.579 71.0606C349.82 69.4859 349.596 67.8748 348.932 66.4263C348.269 64.9778 347.196 63.7552 345.846 62.9095C344.496 62.0638 342.927 61.632 341.334 61.6674C339.742 61.7028 338.194 62.2038 336.883 63.1087C335.089 64.4257 333.892 66.401 333.554 68.6005C333.217 70.8 333.766 73.0435 335.082 74.8379Z" fill="#0075FF"/>
<path d="M337.169 67.8116C336.017 61.2188 342.246 56.1414 350.59 58.5916C358.935 61.0417 354.526 68.4316 352.804 74.3356C351.082 80.2396 355.589 85.868 357.459 81.3712C359.328 76.8743 356.179 75.4672 356.179 75.4672C356.179 75.4672 365.035 77.7599 356.809 87.7475C348.583 97.7351 341.134 86.7044 343.151 80.2002C344.785 74.9752 338.261 74.0404 337.169 67.8116Z" fill="#263238"/>
<path d="M328.836 70.3011C325.028 68.3331 318.583 66.7095 314.913 72.889C313.181 75.841 313.85 79.777 313.85 79.777L325.058 80.515L328.836 70.3011Z" fill="#263238"/>
<path d="M312.529 77.8293C312.463 77.8243 312.402 77.7938 312.358 77.7442C312.314 77.6947 312.29 77.6299 312.293 77.5637C312.293 77.3964 312.579 73.4407 314.97 70.961C320.746 64.9586 327.516 69.977 329.444 71.6006C329.486 71.6445 329.51 71.7022 329.511 71.7626C329.513 71.823 329.493 71.8819 329.454 71.9281C329.415 71.9743 329.36 72.0046 329.3 72.0132C329.241 72.0217 329.18 72.008 329.129 71.9745C327.27 70.3805 320.795 65.6081 315.353 71.2956C313.09 73.6473 312.815 77.5538 312.815 77.5932C312.814 77.6283 312.805 77.6627 312.79 77.6942C312.775 77.7258 312.753 77.7537 312.726 77.776C312.699 77.7984 312.667 77.8147 312.633 77.8239C312.599 77.8331 312.564 77.835 312.529 77.8293Z" fill="#263238"/>
<path d="M326.544 87.4914C326.499 89.0395 325.926 90.5257 324.92 91.7029C323.562 93.297 321.968 92.5098 321.643 90.7189C321.319 89.1347 321.643 86.3893 323.356 85.4348C325.068 84.4803 326.563 85.7005 326.544 87.4914Z" fill="#FFB573"/>
<path d="M324.77 162.394C324.77 162.394 325.301 219.614 330.26 251.495C334.275 277.246 341.684 336.798 341.684 336.798H352.932C352.932 336.798 354.024 279.303 351.948 253.837C346.801 189.385 360.095 177.331 349.37 162.394H324.77Z" fill="#263238"/>
<path opacity="0.1" d="M324.77 162.394C324.77 162.394 325.301 219.614 330.26 251.495C334.275 277.246 341.684 336.798 341.684 336.798H352.932C352.932 336.798 354.024 279.303 351.948 253.837C346.801 189.385 360.095 177.331 349.37 162.394H324.77Z" fill="white"/>
<path opacity="0.3" d="M330.683 188.352C334.619 205.621 331.48 232.819 329.325 244.794C327.042 226.61 325.891 203.043 325.32 185.754C327.357 182.468 329.286 182.251 330.683 188.352Z" fill="black"/>
<path d="M340.153 337.014H354.47L355.218 331.996L340.074 331.484L340.153 337.014Z" fill="#0075FF"/>
<path d="M344.233 114.059C345.581 111.383 352.823 109.7 356.779 109.71L359.731 122.856C359.731 122.856 351.859 134.556 348.572 133.316C344.705 131.889 341.35 119.835 344.233 114.059Z" fill="#0075FF"/>
<path opacity="0.4" d="M344.233 114.059C345.581 111.383 352.823 109.7 356.779 109.71L359.731 122.856C359.731 122.856 351.859 134.556 348.572 133.316C344.705 131.889 341.35 119.835 344.233 114.059Z" fill="black"/>
<path d="M335.891 333.796C335.908 333.768 335.916 333.735 335.916 333.703C335.916 333.67 335.908 333.638 335.891 333.609C335.873 333.571 335.843 333.541 335.806 333.521C335.769 333.502 335.726 333.495 335.685 333.501C335.272 333.57 331.631 334.141 331.139 335.184C331.086 335.278 331.059 335.385 331.059 335.494C331.059 335.602 331.086 335.709 331.139 335.803C331.223 335.959 331.344 336.092 331.492 336.189C331.64 336.287 331.809 336.347 331.985 336.364C333.176 336.482 334.937 334.829 335.823 333.826L335.891 333.796ZM331.522 335.311C331.857 334.76 333.746 334.249 335.183 333.983C333.884 335.302 332.743 336.04 332.074 335.951C331.958 335.94 331.847 335.899 331.751 335.834C331.654 335.769 331.576 335.68 331.522 335.577C331.501 335.54 331.49 335.497 331.49 335.454C331.49 335.411 331.501 335.369 331.522 335.331C331.522 335.331 331.513 335.321 331.522 335.311Z" fill="#0075FF"/>
<path d="M335.892 333.797C335.909 333.769 335.917 333.737 335.917 333.704C335.917 333.671 335.909 333.639 335.892 333.61C335.833 333.541 334.377 331.859 333.029 331.77C332.835 331.754 332.639 331.778 332.455 331.84C332.27 331.903 332.1 332.003 331.956 332.134C331.553 332.498 331.592 332.813 331.691 333.01C332.114 333.856 334.731 334.152 335.784 333.925C335.811 333.914 335.835 333.897 335.854 333.875C335.873 333.853 335.886 333.826 335.892 333.797ZM332.045 332.557C332.088 332.491 332.141 332.431 332.202 332.38C332.305 332.283 332.428 332.208 332.562 332.162C332.696 332.117 332.839 332.1 332.98 332.115C333.895 332.34 334.717 332.846 335.331 333.561C334.16 333.66 332.271 333.305 332.015 332.794C331.999 332.755 331.993 332.713 331.998 332.672C332.003 332.63 332.019 332.591 332.045 332.557Z" fill="#0075FF"/>
<path d="M344.479 330.304L336.941 333.659L333.586 326.663L329.197 317.512L328.676 316.449L336.213 313.094L336.794 314.294L341.045 323.16L344.479 330.304Z" fill="#FFB573"/>
<path opacity="0.2" d="M341.047 323.159L333.588 326.662L329.199 317.511L336.796 314.293L341.047 323.159Z" fill="black"/>
<path d="M315.933 162.394C315.933 162.394 291.855 222.3 298.379 250.442C304.283 275.918 330.359 324.164 330.359 324.164L340.465 319.106C340.465 319.106 324.337 260.863 322.595 248.209C319.191 223.609 341.065 188.844 341.065 162.394H315.933Z" fill="#263238"/>
<path opacity="0.1" d="M315.933 162.394C315.933 162.394 291.855 222.3 298.379 250.442C304.283 275.918 330.359 324.164 330.359 324.164L340.465 319.106C340.465 319.106 324.337 260.863 322.595 248.209C319.191 223.609 341.065 188.844 341.065 162.394H315.933Z" fill="white"/>
<path d="M335.604 332.607L343.083 327.165C343.209 327.066 343.367 327.018 343.527 327.029C343.687 327.04 343.837 327.109 343.948 327.224L349.114 332.528C349.24 332.666 349.334 332.83 349.392 333.007C349.45 333.185 349.47 333.372 349.451 333.558C349.431 333.744 349.373 333.923 349.279 334.085C349.186 334.246 349.059 334.386 348.908 334.496C346.261 336.346 344.893 337.113 341.607 339.504C339.58 340.98 335.545 344.237 332.751 346.274C329.956 348.311 327.831 345.654 328.815 344.562C333.223 339.642 334.148 336.592 334.837 333.827C334.943 333.343 335.215 332.912 335.604 332.607Z" fill="#263238"/>
<path d="M329.709 326.298L342.727 320.345L341.064 315.041L327.121 321.398L329.709 326.298Z" fill="#0075FF"/>
<path d="M322.322 113.43C321.249 110.636 311.842 107.526 307.119 106.542L305.043 122.011C305.043 122.011 312.758 133.091 316.133 132.176C320.128 131.093 324.644 119.423 322.322 113.43Z" fill="#0075FF"/>
<path opacity="0.4" d="M322.322 113.43C321.249 110.636 311.842 107.526 307.119 106.542L305.043 122.011C305.043 122.011 312.758 133.091 316.133 132.176C320.128 131.093 324.644 119.423 322.322 113.43Z" fill="black"/>
<path d="M312 112.652C312 112.652 308.064 114.03 315.936 162.393H349.392C348.831 148.775 348.811 140.371 355.296 112.406C350.608 111.439 345.855 110.814 341.077 110.536C336.019 110.172 330.942 110.172 325.884 110.536C319.399 111.107 312 112.652 312 112.652Z" fill="#0075FF"/>
<path opacity="0.4" d="M312 112.652C312 112.652 308.064 114.03 315.936 162.393H349.392C348.831 148.775 348.811 140.371 355.296 112.406C350.608 111.439 345.855 110.814 341.077 110.536C336.019 110.172 330.942 110.172 325.884 110.536C319.399 111.107 312 112.652 312 112.652Z" fill="black"/>
<path d="M349.911 160.436L351.417 163.388C351.535 163.624 351.259 163.86 350.875 163.86H315.766C315.461 163.86 315.215 163.713 315.196 163.516L314.891 160.564C314.891 160.357 315.137 160.18 315.461 160.18H349.321C349.433 160.162 349.549 160.177 349.653 160.222C349.758 160.267 349.847 160.342 349.911 160.436Z" fill="#0075FF"/>
<path opacity="0.3" d="M349.911 160.436L351.417 163.388C351.535 163.624 351.259 163.86 350.875 163.86H315.766C315.461 163.86 315.215 163.713 315.196 163.516L314.891 160.564C314.891 160.357 315.137 160.18 315.461 160.18H349.321C349.433 160.162 349.549 160.177 349.653 160.222C349.758 160.267 349.847 160.342 349.911 160.436Z" fill="white"/>
<path d="M345.387 164.243H346.293C346.479 164.243 346.617 164.145 346.598 164.037L346.174 160.101C346.174 159.983 346.007 159.894 345.83 159.894H344.915C344.738 159.894 344.6 159.983 344.61 160.101L345.033 164.037C345.023 164.125 345.181 164.243 345.387 164.243Z" fill="#263238"/>
<path d="M323.356 164.243H324.261C324.438 164.243 324.576 164.145 324.566 164.037L324.143 160.101C324.143 159.983 323.976 159.894 323.789 159.894H322.884C322.697 159.894 322.569 159.983 322.579 160.101L323.002 164.037C323.012 164.125 323.169 164.243 323.356 164.243Z" fill="#263238"/>
</svg>
