<svg width="568" height="361" viewBox="0 0 568 361" fill="none" xmlns="http://www.w3.org/2000/svg">
<g clip-path="url(#clip0_613_2746)">
<path d="M12.5266 292.341C12.5266 292.341 555.768 292.341 557.799 292.341C560.52 292.299 544.045 208.754 542.088 201.879C531.71 165.398 516.594 129.93 494.126 99.2316C421.894 0.538203 273.661 -17.162 194.62 84.2109C168.631 117.544 142.544 155.3 102.288 172.238C71.8006 185.068 38.0387 187.342 15.825 214.908C-0.709504 235.424 -3.58595 271.488 12.5266 292.34V292.341Z" fill="#F4F7FD"/>
<path d="M567.46 294H0.53991C0.241393 294 0 293.758 0 293.458C0 293.159 0.241393 292.917 0.53991 292.917H567.46C567.759 292.917 568 293.159 568 293.458C568 293.758 567.759 294 567.46 294Z" fill="#102A54"/>
<path d="M544.679 52.9746H270.287C265.909 52.9746 262.359 56.5362 262.359 60.9297V243.703C262.359 248.096 265.909 251.658 270.287 251.658H544.679C549.057 251.658 552.606 248.096 552.606 243.703V60.9297C552.606 56.5362 549.057 52.9746 544.679 52.9746Z" fill="#F4F7FD"/>
<path d="M309.314 125.09H279.75V220.982H309.314V125.09Z" fill="#CCE6FF"/>
<path d="M352.838 141.957H323.273V220.982H352.838V141.957Z" fill="#CCE6FF"/>
<path d="M396.361 114.387H366.797V220.98H396.361V114.387Z" fill="#CCE6FF"/>
<path d="M439.885 95.9678H410.32V220.98H439.885V95.9678Z" fill="#E6515C"/>
<path d="M483.412 175.744H453.848V220.982H483.412V175.744Z" fill="#CCE6FF"/>
<path d="M526.935 65.0332H497.371V220.982H526.935V65.0332Z" fill="#3C94F8"/>
<path d="M543.211 248.039H267.1C263.042 248.039 259.742 244.727 259.742 240.655V56.1571C259.742 52.0853 263.042 48.7734 267.1 48.7734H543.211C547.269 48.7734 550.569 52.0853 550.569 56.1571V240.655C550.569 244.727 547.269 248.039 543.211 248.039ZM267.1 49.3541C263.363 49.3541 260.321 52.4052 260.321 56.1571V240.655C260.321 244.405 263.361 247.458 267.1 247.458H543.211C546.948 247.458 549.991 244.407 549.991 240.655V56.1571C549.991 52.407 546.95 49.3541 543.211 49.3541H267.1Z" fill="#102A54"/>
<path d="M111.729 149.349H42.9927C40.4276 149.349 38.3398 147.254 38.3398 144.68V85.1945C38.3398 82.6205 40.4276 80.5254 42.9927 80.5254H111.729C114.294 80.5254 116.382 82.6205 116.382 85.1945V144.68C116.382 147.254 114.294 149.349 111.729 149.349ZM42.9927 81.106C40.7464 81.106 38.9185 82.9404 38.9185 85.1945V144.68C38.9185 146.934 40.7464 148.769 42.9927 148.769H111.729C113.975 148.769 115.803 146.934 115.803 144.68V85.1945C115.803 82.9404 113.975 81.106 111.729 81.106H42.9927Z" fill="#102A54"/>
<path d="M45.6841 129.539C45.6104 129.539 45.5367 129.512 45.4795 129.454C45.3671 129.341 45.3653 129.157 45.4795 129.044L54.927 119.539L63.8825 124.212L77.7488 108.988L87.5427 115.206L103.307 100.254L109.205 104.481C109.336 104.574 109.366 104.755 109.274 104.886C109.182 105.018 109.001 105.047 108.87 104.955L103.36 101.005L87.6146 115.941L77.8502 109.742L64.0097 124.937L55.0376 120.255L45.8904 129.458C45.8333 129.515 45.7596 129.543 45.6859 129.543L45.6841 129.539Z" fill="#102A54"/>
<path d="M116.092 90.2835H38.6291C38.4688 90.2835 38.3398 90.1541 38.3398 89.9932C38.3398 89.8323 38.4688 89.7029 38.6291 89.7029H116.092C116.253 89.7029 116.382 89.8323 116.382 89.9932C116.382 90.1541 116.253 90.2835 116.092 90.2835Z" fill="#102A54"/>
<path d="M45.6857 87.5004C46.7462 87.5004 47.6058 86.6377 47.6058 85.5736C47.6058 84.5094 46.7462 83.6467 45.6857 83.6467C44.6253 83.6467 43.7656 84.5094 43.7656 85.5736C43.7656 86.6377 44.6253 87.5004 45.6857 87.5004Z" fill="#102A54"/>
<path d="M52.6271 87.5004C53.6876 87.5004 54.5472 86.6377 54.5472 85.5736C54.5472 84.5094 53.6876 83.6467 52.6271 83.6467C51.5667 83.6467 50.707 84.5094 50.707 85.5736C50.707 86.6377 51.5667 87.5004 52.6271 87.5004Z" fill="#80C0FF"/>
<path d="M59.5685 87.5004C60.629 87.5004 61.4886 86.6377 61.4886 85.5736C61.4886 84.5094 60.629 83.6467 59.5685 83.6467C58.5081 83.6467 57.6484 84.5094 57.6484 85.5736C57.6484 86.6377 58.5081 87.5004 59.5685 87.5004Z" fill="#80C0FF"/>
<path d="M49.7663 129.804C49.6539 129.804 49.5396 129.769 49.442 129.696C49.1951 129.515 49.1416 129.169 49.3204 128.922L57.3324 117.893L75.8699 114.411L86.6515 107.649L108.423 108.257C108.729 108.267 108.968 108.522 108.961 108.827C108.952 109.128 108.707 109.367 108.408 109.367C108.403 109.367 108.397 109.367 108.392 109.367L86.9538 108.768L76.2772 115.463L57.9663 118.903L50.2122 129.576C50.1035 129.726 49.9358 129.804 49.7645 129.804H49.7663Z" fill="#E6515C"/>
<path d="M363.648 2.09888H276.02C272.948 2.09888 270.457 4.5983 270.457 7.68149V83.5156C270.457 86.5988 272.948 89.0982 276.02 89.0982H363.648C366.72 89.0982 369.211 86.5988 369.211 83.5156V7.68149C369.211 4.5983 366.72 2.09888 363.648 2.09888Z" fill="white"/>
<path d="M362.528 87.739H274.9C271.63 87.739 268.969 85.0688 268.969 81.7866V5.95245C268.969 2.67019 271.63 0 274.9 0H362.528C365.799 0 368.46 2.67019 368.46 5.95245V81.7866C368.46 85.0688 365.799 87.739 362.528 87.739ZM274.9 0.739664C272.037 0.739664 269.706 3.077 269.706 5.95245V81.7866C269.706 84.6601 272.035 86.9993 274.9 86.9993H362.528C365.392 86.9993 367.723 84.662 367.723 81.7866V5.95245C367.723 3.07885 365.393 0.739664 362.528 0.739664H274.9Z" fill="#102A54"/>
<path d="M368.091 12.4394H269.337C269.133 12.4394 268.969 12.2729 268.969 12.0695C268.969 11.8661 269.135 11.6997 269.337 11.6997H368.091C368.296 11.6997 368.46 11.8661 368.46 12.0695C368.46 12.2729 368.294 12.4394 368.091 12.4394Z" fill="#102A54"/>
<path d="M280.758 6.83052C280.975 5.4918 280.069 4.23039 278.735 4.01309C277.401 3.79578 276.144 4.70487 275.927 6.04359C275.711 7.3823 276.617 8.64369 277.951 8.86099C279.285 9.0783 280.542 8.16923 280.758 6.83052Z" fill="#102A54"/>
<path d="M289.61 6.83049C289.826 5.49178 288.92 4.23037 287.586 4.01306C286.252 3.79576 284.995 4.70485 284.779 6.04356C284.562 7.38228 285.468 8.64369 286.802 8.86099C288.136 9.0783 289.393 8.16921 289.61 6.83049Z" fill="#80C0FF"/>
<path d="M298.461 6.83074C298.678 5.49202 297.772 4.23061 296.438 4.01331C295.104 3.796 293.847 4.70509 293.63 6.04381C293.414 7.38252 294.32 8.64393 295.654 8.86124C296.988 9.07854 298.245 8.16945 298.461 6.83074Z" fill="#80C0FF"/>
<path d="M341.804 69.2686C353.011 58.022 353.011 39.7876 341.804 28.5409C330.596 17.2943 312.426 17.2943 301.218 28.5409C290.011 39.7876 290.011 58.022 301.218 69.2686C312.426 80.5153 330.596 80.5153 341.804 69.2686Z" fill="#E6515C"/>
<path d="M321.509 77.9847C321.352 77.9847 321.227 77.8571 321.227 77.7017V20.1059C321.227 19.9487 321.354 19.823 321.509 19.823C321.663 19.823 321.79 19.9506 321.79 20.1059V77.7017C321.79 77.8589 321.663 77.9847 321.509 77.9847Z" fill="#102A54"/>
<path d="M316.649 77.2265C316.571 77.2265 316.492 77.1951 316.437 77.1304C310.094 69.9353 306.742 60.1754 306.742 48.9048C306.742 38.2499 310.046 28.0388 315.808 20.8844C315.906 20.7624 316.085 20.7439 316.204 20.8419C316.326 20.9399 316.344 21.1193 316.247 21.2395C310.566 28.294 307.306 38.3756 307.306 48.9029C307.306 60.033 310.61 69.6634 316.859 76.7531C316.962 76.8696 316.951 77.049 316.835 77.1525C316.781 77.2006 316.715 77.2228 316.649 77.2228V77.2265Z" fill="#102A54"/>
<path d="M326.733 77.5798C326.67 77.5798 326.608 77.5594 326.556 77.5169C326.434 77.4189 326.416 77.2395 326.514 77.1193C332.195 70.0648 335.454 59.9831 335.454 49.4559C335.454 38.2888 331.861 27.8096 325.594 20.7014C325.491 20.5849 325.502 20.4055 325.618 20.302C325.734 20.1984 325.913 20.2095 326.016 20.326C332.372 27.5359 336.018 38.1519 336.018 49.4559C336.018 60.1107 332.714 70.3218 326.952 77.4762C326.897 77.5446 326.814 77.5816 326.733 77.5816V77.5798Z" fill="#102A54"/>
<path d="M322.042 37.0794C312.64 37.0794 303.863 35.049 298.564 31.6465C298.433 31.5615 298.394 31.3876 298.477 31.2545C298.562 31.1232 298.737 31.0844 298.868 31.1694C304.081 34.5146 312.743 36.5135 322.042 36.5135C330.846 36.5135 339.24 34.681 344.495 31.6114C344.629 31.5319 344.803 31.5781 344.88 31.7131C344.959 31.8481 344.913 32.0219 344.779 32.0996C339.361 35.2635 331.073 37.0794 322.042 37.0794Z" fill="#102A54"/>
<path d="M300.9 69.2215C300.793 69.2215 300.692 69.1605 300.644 69.057C300.578 68.9146 300.638 68.7463 300.78 68.6797C306.128 66.1797 313.683 64.7466 321.511 64.7466C329.338 64.7466 336.184 66.0299 341.539 68.3617C341.683 68.4246 341.747 68.591 341.686 68.7352C341.624 68.8795 341.458 68.9442 341.316 68.8832C336.031 66.5828 328.998 65.3143 321.513 65.3143C314.028 65.3143 306.296 66.7289 301.02 69.1938C300.981 69.2123 300.941 69.2197 300.9 69.2197V69.2215Z" fill="#102A54"/>
<path d="M350.208 49.7367H292.813C292.657 49.7367 292.531 49.6091 292.531 49.4538C292.531 49.2985 292.658 49.1709 292.813 49.1709H350.208C350.364 49.1709 350.49 49.2985 350.49 49.4538C350.49 49.6091 350.362 49.7367 350.208 49.7367Z" fill="#102A54"/>
<path d="M77.3596 81.1062C77.1993 81.1062 77.0703 80.9767 77.0703 80.8158V78.5968C77.0703 78.436 77.1993 78.3065 77.3596 78.3065C77.5199 78.3065 77.6489 78.436 77.6489 78.5968V80.8158C77.6489 80.9767 77.5199 81.1062 77.3596 81.1062ZM77.3596 76.6682C77.1993 76.6682 77.0703 76.5387 77.0703 76.3779V74.1589C77.0703 73.998 77.1993 73.8685 77.3596 73.8685C77.5199 73.8685 77.6489 73.998 77.6489 74.1589V76.3779C77.6489 76.5387 77.5199 76.6682 77.3596 76.6682ZM77.3596 72.2302C77.1993 72.2302 77.0703 72.1007 77.0703 71.9399V69.7209C77.0703 69.56 77.1993 69.4306 77.3596 69.4306C77.5199 69.4306 77.6489 69.56 77.6489 69.7209V71.9399C77.6489 72.1007 77.5199 72.2302 77.3596 72.2302ZM77.3596 67.7922C77.1993 67.7922 77.0703 67.6628 77.0703 67.5019V65.2829C77.0703 65.122 77.1993 64.9926 77.3596 64.9926C77.5199 64.9926 77.6489 65.122 77.6489 65.2829V67.5019C77.6489 67.6628 77.5199 67.7922 77.3596 67.7922ZM77.3596 63.3542C77.1993 63.3542 77.0703 63.2248 77.0703 63.0639V60.8449C77.0703 60.684 77.1993 60.5546 77.3596 60.5546C77.5199 60.5546 77.6489 60.684 77.6489 60.8449V63.0639C77.6489 63.2248 77.5199 63.3542 77.3596 63.3542ZM77.3596 58.9162C77.1993 58.9162 77.0703 58.7868 77.0703 58.6259V56.4069C77.0703 56.246 77.1993 56.1166 77.3596 56.1166C77.5199 56.1166 77.6489 56.246 77.6489 56.4069V58.6259C77.6489 58.7868 77.5199 58.9162 77.3596 58.9162ZM77.3596 54.4782C77.1993 54.4782 77.0703 54.3488 77.0703 54.1879V51.9689C77.0703 51.8081 77.1993 51.6786 77.3596 51.6786C77.5199 51.6786 77.6489 51.8081 77.6489 51.9689V54.1879C77.6489 54.3488 77.5199 54.4782 77.3596 54.4782ZM77.3596 50.0402C77.1993 50.0402 77.0703 49.9108 77.0703 49.7499V47.5309C77.0703 47.3701 77.1993 47.2406 77.3596 47.2406C77.5199 47.2406 77.6489 47.3701 77.6489 47.5309V49.7499C77.6489 49.9108 77.5199 50.0402 77.3596 50.0402ZM77.3596 45.6023C77.1993 45.6023 77.0703 45.4728 77.0703 45.3119V43.0929C77.0703 42.9321 77.1993 42.8026 77.3596 42.8026C77.5199 42.8026 77.6489 42.9321 77.6489 43.0929V45.3119C77.6489 45.4728 77.5199 45.6023 77.3596 45.6023ZM77.3596 41.1643C77.1993 41.1643 77.0703 41.0348 77.0703 40.874V38.655C77.0703 38.4941 77.1993 38.3646 77.3596 38.3646C77.5199 38.3646 77.6489 38.4941 77.6489 38.655V40.874C77.6489 41.0348 77.5199 41.1643 77.3596 41.1643ZM77.3596 36.7263C77.1993 36.7263 77.0703 36.5968 77.0703 36.436V34.217C77.0703 34.0561 77.1993 33.9267 77.3596 33.9267C77.5199 33.9267 77.6489 34.0561 77.6489 34.217V36.436C77.6489 36.5968 77.5199 36.7263 77.3596 36.7263ZM267.412 34.3926H265.2C265.04 34.3926 264.911 34.2632 264.911 34.1023C264.911 33.9415 265.04 33.812 265.2 33.812H267.412C267.572 33.812 267.701 33.9415 267.701 34.1023C267.701 34.2632 267.572 34.3926 267.412 34.3926ZM262.989 34.3926H260.778C260.618 34.3926 260.489 34.2632 260.489 34.1023C260.489 33.9415 260.618 33.812 260.778 33.812H262.989C263.149 33.812 263.278 33.9415 263.278 34.1023C263.278 34.2632 263.149 34.3926 262.989 34.3926ZM258.567 34.3926H256.355C256.195 34.3926 256.066 34.2632 256.066 34.1023C256.066 33.9415 256.195 33.812 256.355 33.812H258.567C258.727 33.812 258.856 33.9415 258.856 34.1023C258.856 34.2632 258.727 34.3926 258.567 34.3926ZM254.144 34.3926H251.933C251.773 34.3926 251.644 34.2632 251.644 34.1023C251.644 33.9415 251.773 33.812 251.933 33.812H254.144C254.305 33.812 254.434 33.9415 254.434 34.1023C254.434 34.2632 254.305 34.3926 254.144 34.3926ZM249.722 34.3926H247.51C247.35 34.3926 247.221 34.2632 247.221 34.1023C247.221 33.9415 247.35 33.812 247.51 33.812H249.722C249.882 33.812 250.011 33.9415 250.011 34.1023C250.011 34.2632 249.882 34.3926 249.722 34.3926ZM245.299 34.3926H243.088C242.928 34.3926 242.799 34.2632 242.799 34.1023C242.799 33.9415 242.928 33.812 243.088 33.812H245.299C245.46 33.812 245.589 33.9415 245.589 34.1023C245.589 34.2632 245.46 34.3926 245.299 34.3926ZM240.877 34.3926H238.666C238.505 34.3926 238.376 34.2632 238.376 34.1023C238.376 33.9415 238.505 33.812 238.666 33.812H240.877C241.037 33.812 241.166 33.9415 241.166 34.1023C241.166 34.2632 241.037 34.3926 240.877 34.3926ZM236.454 34.3926H234.243C234.083 34.3926 233.954 34.2632 233.954 34.1023C233.954 33.9415 234.083 33.812 234.243 33.812H236.454C236.615 33.812 236.744 33.9415 236.744 34.1023C236.744 34.2632 236.615 34.3926 236.454 34.3926ZM232.032 34.3926H229.821C229.66 34.3926 229.531 34.2632 229.531 34.1023C229.531 33.9415 229.66 33.812 229.821 33.812H232.032C232.192 33.812 232.321 33.9415 232.321 34.1023C232.321 34.2632 232.192 34.3926 232.032 34.3926ZM227.609 34.3926H225.398C225.238 34.3926 225.109 34.2632 225.109 34.1023C225.109 33.9415 225.238 33.812 225.398 33.812H227.609C227.77 33.812 227.899 33.9415 227.899 34.1023C227.899 34.2632 227.77 34.3926 227.609 34.3926ZM223.187 34.3926H220.976C220.815 34.3926 220.686 34.2632 220.686 34.1023C220.686 33.9415 220.815 33.812 220.976 33.812H223.187C223.347 33.812 223.476 33.9415 223.476 34.1023C223.476 34.2632 223.347 34.3926 223.187 34.3926ZM218.764 34.3926H216.553C216.393 34.3926 216.264 34.2632 216.264 34.1023C216.264 33.9415 216.393 33.812 216.553 33.812H218.764C218.925 33.812 219.054 33.9415 219.054 34.1023C219.054 34.2632 218.925 34.3926 218.764 34.3926ZM214.342 34.3926H212.131C211.97 34.3926 211.841 34.2632 211.841 34.1023C211.841 33.9415 211.97 33.812 212.131 33.812H214.342C214.502 33.812 214.631 33.9415 214.631 34.1023C214.631 34.2632 214.502 34.3926 214.342 34.3926ZM209.919 34.3926H207.708C207.548 34.3926 207.419 34.2632 207.419 34.1023C207.419 33.9415 207.548 33.812 207.708 33.812H209.919C210.08 33.812 210.209 33.9415 210.209 34.1023C210.209 34.2632 210.08 34.3926 209.919 34.3926ZM205.497 34.3926H203.286C203.125 34.3926 202.996 34.2632 202.996 34.1023C202.996 33.9415 203.125 33.812 203.286 33.812H205.497C205.657 33.812 205.786 33.9415 205.786 34.1023C205.786 34.2632 205.657 34.3926 205.497 34.3926ZM201.075 34.3926H198.863C198.703 34.3926 198.574 34.2632 198.574 34.1023C198.574 33.9415 198.703 33.812 198.863 33.812H201.075C201.235 33.812 201.364 33.9415 201.364 34.1023C201.364 34.2632 201.235 34.3926 201.075 34.3926ZM196.652 34.3926H194.441C194.281 34.3926 194.152 34.2632 194.152 34.1023C194.152 33.9415 194.281 33.812 194.441 33.812H196.652C196.812 33.812 196.941 33.9415 196.941 34.1023C196.941 34.2632 196.812 34.3926 196.652 34.3926ZM192.23 34.3926H190.018C189.858 34.3926 189.729 34.2632 189.729 34.1023C189.729 33.9415 189.858 33.812 190.018 33.812H192.23C192.39 33.812 192.519 33.9415 192.519 34.1023C192.519 34.2632 192.39 34.3926 192.23 34.3926ZM187.807 34.3926H185.596C185.436 34.3926 185.307 34.2632 185.307 34.1023C185.307 33.9415 185.436 33.812 185.596 33.812H187.807C187.967 33.812 188.096 33.9415 188.096 34.1023C188.096 34.2632 187.967 34.3926 187.807 34.3926ZM183.385 34.3926H181.173C181.013 34.3926 180.884 34.2632 180.884 34.1023C180.884 33.9415 181.013 33.812 181.173 33.812H183.385C183.545 33.812 183.674 33.9415 183.674 34.1023C183.674 34.2632 183.545 34.3926 183.385 34.3926ZM178.962 34.3926H176.751C176.591 34.3926 176.462 34.2632 176.462 34.1023C176.462 33.9415 176.591 33.812 176.751 33.812H178.962C179.123 33.812 179.251 33.9415 179.251 34.1023C179.251 34.2632 179.123 34.3926 178.962 34.3926ZM174.54 34.3926H172.328C172.168 34.3926 172.039 34.2632 172.039 34.1023C172.039 33.9415 172.168 33.812 172.328 33.812H174.54C174.7 33.812 174.829 33.9415 174.829 34.1023C174.829 34.2632 174.7 34.3926 174.54 34.3926ZM170.117 34.3926H167.906C167.746 34.3926 167.617 34.2632 167.617 34.1023C167.617 33.9415 167.746 33.812 167.906 33.812H170.117C170.278 33.812 170.407 33.9415 170.407 34.1023C170.407 34.2632 170.278 34.3926 170.117 34.3926ZM165.695 34.3926H163.484C163.323 34.3926 163.194 34.2632 163.194 34.1023C163.194 33.9415 163.323 33.812 163.484 33.812H165.695C165.855 33.812 165.984 33.9415 165.984 34.1023C165.984 34.2632 165.855 34.3926 165.695 34.3926ZM161.272 34.3926H159.061C158.901 34.3926 158.772 34.2632 158.772 34.1023C158.772 33.9415 158.901 33.812 159.061 33.812H161.272C161.433 33.812 161.562 33.9415 161.562 34.1023C161.562 34.2632 161.433 34.3926 161.272 34.3926ZM156.85 34.3926H154.639C154.478 34.3926 154.349 34.2632 154.349 34.1023C154.349 33.9415 154.478 33.812 154.639 33.812H156.85C157.01 33.812 157.139 33.9415 157.139 34.1023C157.139 34.2632 157.01 34.3926 156.85 34.3926ZM152.427 34.3926H150.216C150.056 34.3926 149.927 34.2632 149.927 34.1023C149.927 33.9415 150.056 33.812 150.216 33.812H152.427C152.588 33.812 152.717 33.9415 152.717 34.1023C152.717 34.2632 152.588 34.3926 152.427 34.3926ZM148.005 34.3926H145.794C145.633 34.3926 145.504 34.2632 145.504 34.1023C145.504 33.9415 145.633 33.812 145.794 33.812H148.005C148.165 33.812 148.294 33.9415 148.294 34.1023C148.294 34.2632 148.165 34.3926 148.005 34.3926ZM143.582 34.3926H141.371C141.211 34.3926 141.082 34.2632 141.082 34.1023C141.082 33.9415 141.211 33.812 141.371 33.812H143.582C143.743 33.812 143.872 33.9415 143.872 34.1023C143.872 34.2632 143.743 34.3926 143.582 34.3926ZM139.16 34.3926H136.949C136.788 34.3926 136.659 34.2632 136.659 34.1023C136.659 33.9415 136.788 33.812 136.949 33.812H139.16C139.32 33.812 139.449 33.9415 139.449 34.1023C139.449 34.2632 139.32 34.3926 139.16 34.3926ZM134.737 34.3926H132.526C132.366 34.3926 132.237 34.2632 132.237 34.1023C132.237 33.9415 132.366 33.812 132.526 33.812H134.737C134.898 33.812 135.027 33.9415 135.027 34.1023C135.027 34.2632 134.898 34.3926 134.737 34.3926ZM130.315 34.3926H128.104C127.943 34.3926 127.814 34.2632 127.814 34.1023C127.814 33.9415 127.943 33.812 128.104 33.812H130.315C130.475 33.812 130.604 33.9415 130.604 34.1023C130.604 34.2632 130.475 34.3926 130.315 34.3926ZM125.893 34.3926H123.681C123.521 34.3926 123.392 34.2632 123.392 34.1023C123.392 33.9415 123.521 33.812 123.681 33.812H125.893C126.053 33.812 126.182 33.9415 126.182 34.1023C126.182 34.2632 126.053 34.3926 125.893 34.3926ZM121.47 34.3926H119.259C119.099 34.3926 118.97 34.2632 118.97 34.1023C118.97 33.9415 119.099 33.812 119.259 33.812H121.47C121.63 33.812 121.759 33.9415 121.759 34.1023C121.759 34.2632 121.63 34.3926 121.47 34.3926ZM117.048 34.3926H114.836C114.676 34.3926 114.547 34.2632 114.547 34.1023C114.547 33.9415 114.676 33.812 114.836 33.812H117.048C117.208 33.812 117.337 33.9415 117.337 34.1023C117.337 34.2632 117.208 34.3926 117.048 34.3926ZM112.625 34.3926H110.414C110.254 34.3926 110.125 34.2632 110.125 34.1023C110.125 33.9415 110.254 33.812 110.414 33.812H112.625C112.785 33.812 112.914 33.9415 112.914 34.1023C112.914 34.2632 112.785 34.3926 112.625 34.3926ZM108.203 34.3926H105.991C105.831 34.3926 105.702 34.2632 105.702 34.1023C105.702 33.9415 105.831 33.812 105.991 33.812H108.203C108.363 33.812 108.492 33.9415 108.492 34.1023C108.492 34.2632 108.363 34.3926 108.203 34.3926ZM103.78 34.3926H101.569C101.409 34.3926 101.28 34.2632 101.28 34.1023C101.28 33.9415 101.409 33.812 101.569 33.812H103.78C103.941 33.812 104.069 33.9415 104.069 34.1023C104.069 34.2632 103.941 34.3926 103.78 34.3926ZM99.3577 34.3926H97.1465C96.9862 34.3926 96.8572 34.2632 96.8572 34.1023C96.8572 33.9415 96.9862 33.812 97.1465 33.812H99.3577C99.518 33.812 99.647 33.9415 99.647 34.1023C99.647 34.2632 99.518 34.3926 99.3577 34.3926ZM94.9353 34.3926H92.724C92.5637 34.3926 92.4347 34.2632 92.4347 34.1023C92.4347 33.9415 92.5637 33.812 92.724 33.812H94.9353C95.0956 33.812 95.2246 33.9415 95.2246 34.1023C95.2246 34.2632 95.0956 34.3926 94.9353 34.3926ZM90.5128 34.3926H88.3015C88.1412 34.3926 88.0122 34.2632 88.0122 34.1023C88.0122 33.9415 88.1412 33.812 88.3015 33.812H90.5128C90.6731 33.812 90.8021 33.9415 90.8021 34.1023C90.8021 34.2632 90.6731 34.3926 90.5128 34.3926ZM86.0903 34.3926H83.8791C83.7188 34.3926 83.5898 34.2632 83.5898 34.1023C83.5898 33.9415 83.7188 33.812 83.8791 33.812H86.0903C86.2506 33.812 86.3796 33.9415 86.3796 34.1023C86.3796 34.2632 86.2506 34.3926 86.0903 34.3926ZM81.6678 34.3926H79.4566C79.2963 34.3926 79.1673 34.2632 79.1673 34.1023C79.1673 33.9415 79.2963 33.812 79.4566 33.812H81.6678C81.8282 33.812 81.9571 33.9415 81.9571 34.1023C81.9571 34.2632 81.8282 34.3926 81.6678 34.3926Z" fill="#102A54"/>
<path d="M82.106 38.913C84.339 36.6722 84.339 33.0392 82.106 30.7984C79.8731 28.5576 76.2527 28.5576 74.0197 30.7984C71.7867 33.0392 71.7867 36.6722 74.0197 38.9131C76.2527 41.1539 79.8731 41.1539 82.106 38.913Z" fill="#80C0FF"/>
<path d="M439.885 48.4201C439.724 48.4201 439.595 48.2907 439.595 48.1298V45.9108C439.595 45.75 439.724 45.6205 439.885 45.6205C440.045 45.6205 440.174 45.75 440.174 45.9108V48.1298C440.174 48.2907 440.045 48.4201 439.885 48.4201ZM439.885 43.9822C439.724 43.9822 439.595 43.8527 439.595 43.6918V41.4728C439.595 41.312 439.724 41.1825 439.885 41.1825C440.045 41.1825 440.174 41.312 440.174 41.4728V43.6918C440.174 43.8527 440.045 43.9822 439.885 43.9822ZM439.885 39.5442C439.724 39.5442 439.595 39.4147 439.595 39.2538V37.0349C439.595 36.874 439.724 36.7445 439.885 36.7445C440.045 36.7445 440.174 36.874 440.174 37.0349V39.2538C440.174 39.4147 440.045 39.5442 439.885 39.5442ZM439.885 35.1062C439.724 35.1062 439.595 34.9767 439.595 34.8159V34.3924H438.385C438.224 34.3924 438.095 34.263 438.095 34.1021C438.095 33.9412 438.224 33.8118 438.385 33.8118H440.174V34.8159C440.174 34.9767 440.045 35.1062 439.885 35.1062ZM436.174 34.3924H433.962C433.802 34.3924 433.673 34.263 433.673 34.1021C433.673 33.9412 433.802 33.8118 433.962 33.8118H436.174C436.334 33.8118 436.463 33.9412 436.463 34.1021C436.463 34.263 436.334 34.3924 436.174 34.3924ZM431.751 34.3924H429.54C429.38 34.3924 429.251 34.263 429.251 34.1021C429.251 33.9412 429.38 33.8118 429.54 33.8118H431.751C431.911 33.8118 432.04 33.9412 432.04 34.1021C432.04 34.263 431.911 34.3924 431.751 34.3924ZM427.329 34.3924H425.117C424.957 34.3924 424.828 34.263 424.828 34.1021C424.828 33.9412 424.957 33.8118 425.117 33.8118H427.329C427.489 33.8118 427.618 33.9412 427.618 34.1021C427.618 34.263 427.489 34.3924 427.329 34.3924ZM422.906 34.3924H420.695C420.535 34.3924 420.406 34.263 420.406 34.1021C420.406 33.9412 420.535 33.8118 420.695 33.8118H422.906C423.066 33.8118 423.195 33.9412 423.195 34.1021C423.195 34.263 423.066 34.3924 422.906 34.3924ZM418.484 34.3924H416.272C416.112 34.3924 415.983 34.263 415.983 34.1021C415.983 33.9412 416.112 33.8118 416.272 33.8118H418.484C418.644 33.8118 418.773 33.9412 418.773 34.1021C418.773 34.263 418.644 34.3924 418.484 34.3924ZM414.061 34.3924H411.85C411.69 34.3924 411.561 34.263 411.561 34.1021C411.561 33.9412 411.69 33.8118 411.85 33.8118H414.061C414.222 33.8118 414.351 33.9412 414.351 34.1021C414.351 34.263 414.222 34.3924 414.061 34.3924ZM409.639 34.3924H407.427C407.267 34.3924 407.138 34.263 407.138 34.1021C407.138 33.9412 407.267 33.8118 407.427 33.8118H409.639C409.799 33.8118 409.928 33.9412 409.928 34.1021C409.928 34.263 409.799 34.3924 409.639 34.3924ZM405.216 34.3924H403.005C402.845 34.3924 402.716 34.263 402.716 34.1021C402.716 33.9412 402.845 33.8118 403.005 33.8118H405.216C405.377 33.8118 405.506 33.9412 405.506 34.1021C405.506 34.263 405.377 34.3924 405.216 34.3924ZM400.794 34.3924H398.583C398.422 34.3924 398.293 34.263 398.293 34.1021C398.293 33.9412 398.422 33.8118 398.583 33.8118H400.794C400.954 33.8118 401.083 33.9412 401.083 34.1021C401.083 34.263 400.954 34.3924 400.794 34.3924ZM396.371 34.3924H394.16C394 34.3924 393.871 34.263 393.871 34.1021C393.871 33.9412 394 33.8118 394.16 33.8118H396.371C396.532 33.8118 396.661 33.9412 396.661 34.1021C396.661 34.263 396.532 34.3924 396.371 34.3924ZM391.949 34.3924H389.738C389.577 34.3924 389.448 34.263 389.448 34.1021C389.448 33.9412 389.577 33.8118 389.738 33.8118H391.949C392.109 33.8118 392.238 33.9412 392.238 34.1021C392.238 34.263 392.109 34.3924 391.949 34.3924ZM387.526 34.3924H385.315C385.155 34.3924 385.026 34.263 385.026 34.1021C385.026 33.9412 385.155 33.8118 385.315 33.8118H387.526C387.687 33.8118 387.816 33.9412 387.816 34.1021C387.816 34.263 387.687 34.3924 387.526 34.3924ZM383.104 34.3924H380.893C380.732 34.3924 380.603 34.263 380.603 34.1021C380.603 33.9412 380.732 33.8118 380.893 33.8118H383.104C383.264 33.8118 383.393 33.9412 383.393 34.1021C383.393 34.263 383.264 34.3924 383.104 34.3924ZM378.681 34.3924H376.47C376.31 34.3924 376.181 34.263 376.181 34.1021C376.181 33.9412 376.31 33.8118 376.47 33.8118H378.681C378.842 33.8118 378.971 33.9412 378.971 34.1021C378.971 34.263 378.842 34.3924 378.681 34.3924ZM374.259 34.3924H372.048C371.887 34.3924 371.758 34.263 371.758 34.1021C371.758 33.9412 371.887 33.8118 372.048 33.8118H374.259C374.419 33.8118 374.548 33.9412 374.548 34.1021C374.548 34.263 374.419 34.3924 374.259 34.3924ZM369.836 34.3924H367.625C367.465 34.3924 367.336 34.263 367.336 34.1021C367.336 33.9412 367.465 33.8118 367.625 33.8118H369.836C369.997 33.8118 370.126 33.9412 370.126 34.1021C370.126 34.263 369.997 34.3924 369.836 34.3924Z" fill="#102A54"/>
<path d="M443.926 38.1596C446.159 35.9188 446.159 32.2858 443.926 30.0449C441.693 27.8041 438.073 27.8041 435.84 30.0449C433.607 32.2858 433.607 35.9188 435.84 38.1596C438.073 40.4004 441.693 40.4004 443.926 38.1596Z" fill="#80C0FF"/>
<path d="M533.029 212.567H465.846C463.491 212.567 461.582 214.482 461.582 216.846V274.987C461.582 277.35 463.491 279.266 465.846 279.266H533.029C535.384 279.266 537.293 277.35 537.293 274.987V216.846C537.293 214.482 535.384 212.567 533.029 212.567Z" fill="white"/>
<path d="M532.174 278.225H464.993C462.485 278.225 460.445 276.178 460.445 273.661V215.522C460.445 213.005 462.485 210.958 464.993 210.958H532.174C534.682 210.958 536.722 213.005 536.722 215.522V273.661C536.722 276.178 534.682 278.225 532.174 278.225ZM464.993 211.525C462.797 211.525 461.011 213.317 461.011 215.522V273.661C461.011 275.865 462.797 277.657 464.993 277.657H532.174C534.371 277.657 536.156 275.865 536.156 273.661V215.522C536.156 213.319 534.371 211.525 532.174 211.525H464.993Z" fill="#102A54"/>
<path d="M536.436 220.494H460.725C460.569 220.494 460.441 220.366 460.441 220.209C460.441 220.052 460.569 219.924 460.725 219.924H536.436C536.593 219.924 536.72 220.052 536.72 220.209C536.72 220.366 536.593 220.494 536.436 220.494Z" fill="#102A54"/>
<path d="M467.622 217.774C468.658 217.774 469.498 216.931 469.498 215.891C469.498 214.852 468.658 214.009 467.622 214.009C466.586 214.009 465.746 214.852 465.746 215.891C465.746 216.931 466.586 217.774 467.622 217.774Z" fill="#102A54"/>
<path d="M474.407 217.774C475.443 217.774 476.283 216.931 476.283 215.891C476.283 214.852 475.443 214.009 474.407 214.009C473.371 214.009 472.531 214.852 472.531 215.891C472.531 216.931 473.371 217.774 474.407 217.774Z" fill="#80C0FF"/>
<path d="M481.192 217.774C482.228 217.774 483.068 216.931 483.068 215.891C483.068 214.852 482.228 214.009 481.192 214.009C480.156 214.009 479.316 214.852 479.316 215.891C479.316 216.931 480.156 217.774 481.192 217.774Z" fill="#80C0FF"/>
<path d="M510.391 250.136V242.175H504.731C504.421 241.088 503.988 240.052 503.45 239.083L507.456 235.063L501.847 229.434L497.841 233.455C496.875 232.913 495.845 232.478 494.76 232.169V226.489H486.827V232.169C485.743 232.48 484.711 232.915 483.746 233.455L479.74 229.434L474.131 235.063L478.137 239.083C477.597 240.052 477.164 241.086 476.856 242.175H471.195V250.136H476.856C477.166 251.223 477.599 252.259 478.137 253.228L474.131 257.248L479.74 262.877L483.746 258.856C484.711 259.398 485.742 259.833 486.827 260.142V265.822H494.76V260.142C495.843 259.831 496.875 259.396 497.841 258.856L501.847 262.877L507.456 257.248L503.45 253.228C503.99 252.259 504.423 251.225 504.731 250.136H510.391ZM490.794 255.027C485.918 255.027 481.953 251.047 481.953 246.155C481.953 241.262 485.918 237.282 490.794 237.282C495.67 237.282 499.635 241.262 499.635 246.155C499.635 251.047 495.67 255.027 490.794 255.027Z" fill="#E6515C"/>
<path d="M490.796 257.092C484.787 257.092 479.898 252.187 479.898 246.156C479.898 240.126 484.787 235.22 490.796 235.22C496.805 235.22 501.694 240.126 501.694 246.156C501.694 252.187 496.805 257.092 490.796 257.092ZM490.796 235.759C485.084 235.759 480.436 240.422 480.436 246.155C480.436 251.887 485.084 256.551 490.796 256.551C496.508 256.551 501.156 251.887 501.156 246.155C501.156 240.422 496.508 235.759 490.796 235.759Z" fill="#102A54"/>
<path d="M527.679 262.904V258.697H524.686C524.522 258.122 524.294 257.575 524.01 257.065L526.127 254.94L523.162 251.965L521.045 254.089C520.534 253.803 519.989 253.573 519.418 253.411V250.408H515.226V253.411C514.653 253.575 514.107 253.805 513.599 254.089L511.481 251.965L508.516 254.94L510.634 257.065C510.348 257.577 510.12 258.124 509.957 258.697H506.965V262.904H509.957C510.121 263.479 510.35 264.027 510.634 264.537L508.516 266.662L511.481 269.637L513.599 267.512C514.109 267.799 514.654 268.028 515.226 268.191V271.194H519.418V268.191C519.991 268.027 520.536 267.797 521.045 267.512L523.162 269.637L526.127 266.662L524.01 264.537C524.295 264.025 524.524 263.478 524.686 262.904H527.679ZM517.321 265.489C514.745 265.489 512.648 263.385 512.648 260.8C512.648 258.215 514.745 256.111 517.321 256.111C519.897 256.111 521.994 258.215 521.994 260.8C521.994 263.385 519.897 265.489 517.321 265.489Z" fill="#E6515C"/>
<path d="M517.319 266.58C514.142 266.58 511.559 263.988 511.559 260.8C511.559 257.612 514.142 255.02 517.319 255.02C520.496 255.02 523.079 257.612 523.079 260.8C523.079 263.988 520.496 266.58 517.319 266.58ZM517.319 255.306C514.301 255.306 511.844 257.771 511.844 260.8C511.844 263.829 514.301 266.294 517.319 266.294C520.337 266.294 522.794 263.829 522.794 260.8C522.794 257.771 520.337 255.306 517.319 255.306Z" fill="#102A54"/>
<path d="M461.192 265.78H458.981C458.82 265.78 458.691 265.65 458.691 265.49C458.691 265.329 458.82 265.199 458.981 265.199H461.192C461.352 265.199 461.481 265.329 461.481 265.49C461.481 265.65 461.352 265.78 461.192 265.78ZM456.77 265.78H454.558C454.398 265.78 454.269 265.65 454.269 265.49C454.269 265.329 454.398 265.199 454.558 265.199H456.77C456.93 265.199 457.059 265.329 457.059 265.49C457.059 265.65 456.93 265.78 456.77 265.78ZM452.347 265.78H450.136C449.976 265.78 449.847 265.65 449.847 265.49C449.847 265.329 449.976 265.199 450.136 265.199H452.347C452.507 265.199 452.636 265.329 452.636 265.49C452.636 265.65 452.507 265.78 452.347 265.78ZM447.925 265.78H445.713C445.553 265.78 445.424 265.65 445.424 265.49C445.424 265.329 445.553 265.199 445.713 265.199H447.925C448.085 265.199 448.214 265.329 448.214 265.49C448.214 265.65 448.085 265.78 447.925 265.78ZM443.502 265.78H441.291C441.131 265.78 441.002 265.65 441.002 265.49C441.002 265.329 441.131 265.199 441.291 265.199H443.502C443.662 265.199 443.791 265.329 443.791 265.49C443.791 265.65 443.662 265.78 443.502 265.78ZM439.08 265.78H436.868C436.708 265.78 436.579 265.65 436.579 265.49C436.579 265.329 436.708 265.199 436.868 265.199H439.08C439.24 265.199 439.369 265.329 439.369 265.49C439.369 265.65 439.24 265.78 439.08 265.78ZM434.657 265.78H432.446C432.286 265.78 432.157 265.65 432.157 265.49C432.157 265.329 432.286 265.199 432.446 265.199H434.657C434.818 265.199 434.946 265.329 434.946 265.49C434.946 265.65 434.818 265.78 434.657 265.78ZM430.235 265.78H428.024C427.863 265.78 427.734 265.65 427.734 265.49C427.734 265.329 427.863 265.199 428.024 265.199H430.235C430.395 265.199 430.524 265.329 430.524 265.49C430.524 265.65 430.395 265.78 430.235 265.78ZM425.812 265.78H423.601C423.441 265.78 423.312 265.65 423.312 265.49C423.312 265.329 423.441 265.199 423.601 265.199H425.812C425.973 265.199 426.102 265.329 426.102 265.49C426.102 265.65 425.973 265.78 425.812 265.78ZM421.39 265.78H419.179C419.018 265.78 418.889 265.65 418.889 265.49C418.889 265.329 419.018 265.199 419.179 265.199H421.39C421.55 265.199 421.679 265.329 421.679 265.49C421.679 265.65 421.55 265.78 421.39 265.78ZM416.967 265.78H414.756C414.596 265.78 414.467 265.65 414.467 265.49C414.467 265.329 414.596 265.199 414.756 265.199H416.967C417.128 265.199 417.257 265.329 417.257 265.49C417.257 265.65 417.128 265.78 416.967 265.78ZM412.545 265.78H410.334C410.173 265.78 410.044 265.65 410.044 265.49C410.044 265.329 410.173 265.199 410.334 265.199H412.545C412.705 265.199 412.834 265.329 412.834 265.49C412.834 265.65 412.705 265.78 412.545 265.78ZM408.122 265.78H405.911C405.751 265.78 405.622 265.65 405.622 265.49C405.622 265.329 405.751 265.199 405.911 265.199H408.122C408.283 265.199 408.412 265.329 408.412 265.49C408.412 265.65 408.283 265.78 408.122 265.78ZM403.7 265.78H401.489C401.328 265.78 401.199 265.65 401.199 265.49C401.199 265.329 401.328 265.199 401.489 265.199H403.7C403.86 265.199 403.989 265.329 403.989 265.49C403.989 265.65 403.86 265.78 403.7 265.78ZM399.277 265.78H397.066C396.906 265.78 396.777 265.65 396.777 265.49C396.777 265.329 396.906 265.199 397.066 265.199H399.277C399.438 265.199 399.567 265.329 399.567 265.49C399.567 265.65 399.438 265.78 399.277 265.78ZM394.855 265.78H392.644C392.483 265.78 392.354 265.65 392.354 265.49C392.354 265.329 392.483 265.199 392.644 265.199H394.855C395.015 265.199 395.144 265.329 395.144 265.49C395.144 265.65 395.015 265.78 394.855 265.78ZM390.433 265.78H388.221C388.061 265.78 387.932 265.65 387.932 265.49C387.932 265.329 388.061 265.199 388.221 265.199H390.433C390.593 265.199 390.722 265.329 390.722 265.49C390.722 265.65 390.593 265.78 390.433 265.78ZM386.01 265.78H383.799C383.638 265.78 383.509 265.65 383.509 265.49C383.509 265.329 383.638 265.199 383.799 265.199H386.01C386.17 265.199 386.299 265.329 386.299 265.49C386.299 265.65 386.17 265.78 386.01 265.78ZM381.588 265.78H379.376C379.216 265.78 379.087 265.65 379.087 265.49C379.087 265.329 379.216 265.199 379.376 265.199H381.588C381.748 265.199 381.877 265.329 381.877 265.49C381.877 265.65 381.748 265.78 381.588 265.78ZM377.165 265.78H374.954C374.794 265.78 374.665 265.65 374.665 265.49C374.665 265.329 374.794 265.199 374.954 265.199H377.165C377.325 265.199 377.454 265.329 377.454 265.49C377.454 265.65 377.325 265.78 377.165 265.78ZM372.743 265.78H370.531C370.371 265.78 370.242 265.65 370.242 265.49C370.242 265.329 370.371 265.199 370.531 265.199H372.743C372.903 265.199 373.032 265.329 373.032 265.49C373.032 265.65 372.903 265.78 372.743 265.78ZM368.32 265.78H366.109C365.949 265.78 365.82 265.65 365.82 265.49C365.82 265.329 365.949 265.199 366.109 265.199H368.32C368.48 265.199 368.609 265.329 368.609 265.49C368.609 265.65 368.48 265.78 368.32 265.78ZM363.898 265.78H361.686C361.526 265.78 361.397 265.65 361.397 265.49C361.397 265.329 361.526 265.199 361.686 265.199H363.898C364.058 265.199 364.187 265.329 364.187 265.49C364.187 265.65 364.058 265.78 363.898 265.78ZM359.475 265.78H357.264C357.104 265.78 356.975 265.65 356.975 265.49C356.975 265.329 357.104 265.199 357.264 265.199H359.475C359.636 265.199 359.765 265.329 359.765 265.49C359.765 265.65 359.636 265.78 359.475 265.78ZM355.053 265.78H352.841C352.681 265.78 352.552 265.65 352.552 265.49C352.552 265.329 352.681 265.199 352.841 265.199H355.053C355.213 265.199 355.342 265.329 355.342 265.49C355.342 265.65 355.213 265.78 355.053 265.78ZM352.832 263.57C352.672 263.57 352.543 263.441 352.543 263.28V261.061C352.543 260.9 352.672 260.771 352.832 260.771C352.993 260.771 353.122 260.9 353.122 261.061V263.28C353.122 263.441 352.993 263.57 352.832 263.57ZM352.832 259.132C352.672 259.132 352.543 259.003 352.543 258.842V256.623C352.543 256.462 352.672 256.333 352.832 256.333C352.993 256.333 353.122 256.462 353.122 256.623V258.842C353.122 259.003 352.993 259.132 352.832 259.132ZM352.832 254.694C352.672 254.694 352.543 254.565 352.543 254.404V252.185C352.543 252.024 352.672 251.895 352.832 251.895C352.993 251.895 353.122 252.024 353.122 252.185V254.404C353.122 254.565 352.993 254.694 352.832 254.694ZM352.832 250.256C352.672 250.256 352.543 250.127 352.543 249.966V247.747C352.543 247.586 352.672 247.457 352.832 247.457C352.993 247.457 353.122 247.586 353.122 247.747V249.966C353.122 250.127 352.993 250.256 352.832 250.256Z" fill="#102A54"/>
<path d="M358.385 267.125C359.11 264.041 357.207 260.951 354.133 260.223C351.06 259.495 347.98 261.405 347.255 264.489C346.529 267.573 348.433 270.664 351.506 271.392C354.58 272.12 357.659 270.21 358.385 267.125Z" fill="#80C0FF"/>
<path d="M60.0226 194.23L53.3373 188.095L41.4556 172.952C40.7572 172.062 39.4525 171.959 38.6252 172.726C37.4735 173.793 37.0405 175.433 37.514 176.935L41.216 188.624L17.6055 183.268C16.4704 183.011 15.3906 183.877 15.3906 185.044V185.959C15.3906 193.176 18.9194 199.933 24.8326 204.042L26.3049 205.064C29.2366 207.1 32.7175 208.191 36.2831 208.191H48.4633L52.1616 210.714L60.0244 194.228L60.0226 194.23Z" fill="#FFC0B1"/>
<path d="M46.0066 203.52C45.9016 203.52 45.7965 203.487 45.7062 203.419C43.0141 201.359 41.2985 198.128 40.7476 194.077C40.3348 191.044 40.7107 188.646 40.7254 188.546C40.7697 188.274 41.024 188.089 41.2948 188.134C41.5657 188.178 41.75 188.433 41.7076 188.705C41.6929 188.797 40.2998 198.03 46.3088 202.627C46.5263 202.794 46.5686 203.106 46.4028 203.326C46.3051 203.456 46.1577 203.522 46.0066 203.522V203.52Z" fill="#102A54"/>
<path d="M35.23 192.925C35.1968 192.925 35.1618 192.921 35.1286 192.914C35.0807 192.904 30.2731 191.904 25.5282 190.904C22.7402 190.316 20.5179 189.84 18.9221 189.495C17.9731 189.287 17.2397 189.125 16.7385 189.01C15.7213 188.775 15.5647 188.74 15.526 188.363C15.4984 188.089 15.6956 187.843 15.9683 187.815C16.0622 187.806 16.1544 187.823 16.2336 187.862C17.0518 188.111 28.0508 190.425 35.3295 191.937C35.5985 191.993 35.7717 192.257 35.7146 192.527C35.6667 192.762 35.4585 192.925 35.2281 192.925H35.23Z" fill="#102A54"/>
<path d="M36.3876 197.74C36.3599 197.74 36.3305 197.738 36.3028 197.732C36.2549 197.725 31.3791 196.884 26.5623 196.04C23.7338 195.545 21.4783 195.144 19.8586 194.85C18.8967 194.676 18.1504 194.537 17.6418 194.437C16.6284 194.241 16.4717 194.21 16.4035 193.857C16.352 193.587 16.527 193.324 16.796 193.272C16.8992 193.252 16.9987 193.265 17.0872 193.304C17.909 193.522 29.0776 195.475 36.4687 196.747C36.7395 196.793 36.9201 197.052 36.8741 197.322C36.8317 197.564 36.6216 197.736 36.3857 197.736L36.3876 197.74ZM17.3083 193.49C17.3415 193.542 17.3673 193.601 17.3802 193.666C17.3673 193.598 17.3415 193.539 17.3083 193.49Z" fill="#102A54"/>
<path d="M35.5103 202.992C35.4919 202.99 35.4292 202.981 35.3279 202.969C34.8451 202.925 33.9348 202.768 32.1105 202.457C29.9122 202.082 26.0444 201.381 20.0943 200.185C19.8253 200.131 19.6502 199.868 19.7055 199.598C19.759 199.328 20.0225 199.153 20.2896 199.208C31.7881 201.522 35.6043 202.002 35.6356 202.006V202.01C35.8641 202.05 35.9691 202.119 36.0484 202.317C36.1166 202.487 36.0871 202.681 35.971 202.821C35.8789 202.934 35.8254 202.999 35.5103 202.986V202.995V202.992Z" fill="#102A54"/>
<path d="M341.008 159.359L286.162 205.519L242.807 163.399C238.03 157.256 230.584 153.306 222.218 153.306H172.084C168.48 153.306 165.047 154.039 161.923 155.365C155.616 158.042 152.712 161.469 149.253 167.133L121.273 217.337L59.9835 191.819L49.7031 213.373L109.008 250.851C113.678 253.803 119.082 255.367 124.601 255.367C133.572 255.367 142.046 251.238 147.593 244.167L157.978 228.088L164.194 293.526H247.791L248.101 226.781L267.02 240.032C273.108 244.296 280.569 246.116 287.929 245.132C295.145 244.167 301.754 240.574 306.503 235.036L357.688 173.926L341.006 159.361L341.008 159.359Z" fill="#102A54"/>
<path d="M199.141 166.506C193.351 168.594 187.014 165.291 185.389 159.337L175.645 123.655L189.688 118.59L205.148 152.084C207.754 157.73 204.975 164.401 199.139 166.506H199.141Z" fill="#FFC0B1"/>
<path d="M159.625 91.0655L204.051 75.0425L204.67 77.942C206.813 87.9626 209.866 97.7761 213.951 107.17C215.906 111.665 217.543 117.268 216.843 122.531C215.468 132.853 206.407 140.519 196.07 139.624C185.648 138.722 167.176 130.776 159.627 91.0673L159.625 91.0655Z" fill="#FFC0B1"/>
<path d="M201.158 115.436C200.954 115.436 200.764 115.308 200.69 115.105C200.598 114.846 200.731 114.559 200.99 114.467L205.092 112.987C205.446 112.86 205.715 112.579 205.828 112.218C205.94 111.858 205.881 111.473 205.664 111.164L197.486 99.5533C197.327 99.3277 197.381 99.0171 197.605 98.858C197.83 98.699 198.14 98.7526 198.298 98.9782L206.476 110.589C206.874 111.155 206.983 111.858 206.777 112.518C206.568 113.178 206.078 113.69 205.43 113.925L201.328 115.404C201.272 115.425 201.215 115.434 201.16 115.434L201.158 115.436Z" fill="#102A54"/>
<path d="M191.253 105.712C192.543 105.412 193.347 104.12 193.048 102.826C192.749 101.531 191.461 100.725 190.171 101.025C188.882 101.325 188.078 102.617 188.377 103.911C188.676 105.206 189.963 106.012 191.253 105.712Z" fill="#102A54"/>
<path d="M208.899 96.308C209.347 97.5581 208.7 98.9357 207.454 99.385C206.209 99.8344 204.836 99.1853 204.388 97.9353C203.94 96.6852 204.587 95.3076 205.833 94.8583C207.078 94.4089 208.451 95.058 208.899 96.308Z" fill="#102A54"/>
<path d="M205.497 125.56C203.49 125.56 201.124 125.151 199.462 123.572C198.227 122.4 197.977 121.137 197.966 121.085L197.879 120.632L209.904 117.327C210.17 117.253 210.442 117.411 210.514 117.677C210.586 117.943 210.431 118.217 210.166 118.289L199.08 121.334C199.508 122.389 201.117 124.931 206.604 124.519C206.879 124.5 207.116 124.704 207.137 124.979C207.157 125.255 206.952 125.493 206.678 125.514C206.306 125.541 205.908 125.558 205.495 125.558L205.497 125.56Z" fill="#102A54"/>
<path d="M199.438 140.192C198.003 140.192 191.784 139.998 186.25 136.81C186.012 136.673 185.929 136.368 186.066 136.13C186.202 135.891 186.506 135.808 186.744 135.945C192.661 139.353 199.635 139.194 199.705 139.19C199.982 139.186 200.208 139.399 200.216 139.675C200.223 139.95 200.008 140.179 199.733 140.187C199.702 140.187 199.6 140.19 199.436 140.19L199.438 140.192Z" fill="#102A54"/>
<path d="M168.036 95.6294C168.036 95.6294 174.292 111.085 171.448 114.901C168.603 118.718 165.666 114.411 165.666 114.411C165.666 114.411 154.634 100.273 161.87 93.6545C166.304 89.5992 168.036 95.6294 168.036 95.6294Z" fill="#102A54"/>
<path d="M169.786 122.295C172.528 121.306 173.58 117.234 172.135 113.201C170.69 109.167 167.296 106.699 164.555 107.688C161.813 108.677 160.761 112.748 162.206 116.782C163.65 120.816 167.044 123.284 169.786 122.295Z" fill="#FFC0B1"/>
<path d="M170.943 122.118C170.77 122.118 170.602 122.028 170.51 121.865C170.375 121.627 170.458 121.323 170.696 121.186C170.797 121.127 173.047 119.757 172.247 115.953C172.19 115.683 172.362 115.419 172.631 115.362C172.898 115.304 173.163 115.476 173.22 115.746C174.179 120.295 171.309 121.982 171.188 122.052C171.11 122.096 171.026 122.117 170.943 122.117V122.118Z" fill="#102A54"/>
<path d="M167.398 100.846C167.398 100.846 179.455 102.623 181.202 92.5431C181.202 92.5431 191.48 95.0265 194.711 87.4301C194.711 87.4301 212.789 95.1726 213.808 77.7886C214.827 60.4046 202.308 56.1682 202.308 56.1682C202.308 56.1682 204.055 63.0342 200.707 64.2028C197.359 65.3715 182.801 60.8429 163.586 75.013C144.37 89.1831 160.291 100.674 167.396 100.846H167.398Z" fill="#102A54"/>
<path d="M182.848 102.632C182.601 102.632 182.354 102.558 182.136 102.405C181.58 102.011 181.445 101.236 181.84 100.678C185.464 95.524 192.796 95.4648 193.108 95.4648C193.79 95.4648 194.342 96.0196 194.342 96.7038C194.342 97.388 193.79 97.9427 193.11 97.9427C193.047 97.9427 186.738 98.0111 183.857 102.105C183.616 102.447 183.235 102.63 182.848 102.63V102.632Z" fill="#102A54"/>
<path d="M199.113 96.4227C198.866 96.4227 198.618 96.3488 198.402 96.1953C197.845 95.8014 197.711 95.0266 198.105 94.4682C201.73 89.3145 209.062 89.2554 209.373 89.2554C210.055 89.2554 210.608 89.8101 210.608 90.4943C210.608 91.1785 210.055 91.7332 209.373 91.7332C209.278 91.7332 202.994 91.8128 200.123 95.8957C199.882 96.2378 199.5 96.4209 199.113 96.4209V96.4227Z" fill="#102A54"/>
<path d="M183.745 153.306L195.7 167.133L182.248 173.925L178.406 153.306H183.745Z" fill="white"/>
<path d="M195.699 167.133L207.31 173.925L211.338 153.306H205.366L195.699 167.133Z" fill="white"/>
<path d="M195.7 167.133L190.891 169.561L195.7 246.813L203.519 257.612L211.339 245.517L199.402 169.298L195.7 167.133Z" fill="#3C94F8"/>
<path d="M343.957 161.937L347.775 153.547C349.012 150.829 350.948 148.49 353.384 146.77L365.244 138.399L366.296 144.634L360.967 151.718L367.621 160.598L354.934 171.521L343.957 161.937Z" fill="#FFC0B1"/>
<path d="M357.685 163.342C357.544 163.342 357.398 163.32 357.256 163.274C356.521 163.035 356.115 162.244 356.353 161.506L385.195 71.6772C385.433 70.9394 386.221 70.5326 386.957 70.7711C387.692 71.0097 388.097 71.8011 387.86 72.5389L359.018 162.367C358.826 162.963 358.277 163.342 357.685 163.342Z" fill="#102A54"/>
<path d="M356.863 149.845L365.154 137.219C365.662 136.442 366.698 136.22 367.479 136.718L371.358 139.19C373.145 140.329 374.124 142.395 373.877 144.505L373.101 153C372.921 154.976 371.984 156.805 370.49 158.105L367.621 160.598L359.104 154.96L356.863 149.845Z" fill="#FFC0B1"/>
<path d="M361.781 161.491C361.664 161.491 361.546 161.45 361.452 161.365C361.247 161.182 361.229 160.866 361.411 160.661L363.991 157.752C364.089 157.641 364.074 157.517 364.063 157.469C364.052 157.421 364.011 157.304 363.877 157.249C363.038 156.903 361.634 156.304 359.72 155.413C358.183 154.697 357.116 153.31 356.635 151.402C356.281 149.997 356.368 148.804 356.371 148.754C356.393 148.478 356.635 148.277 356.906 148.295C357.178 148.318 357.383 148.556 357.363 148.83C357.359 148.872 357.083 153.083 360.138 154.507C362.038 155.391 363.425 155.984 364.254 156.324C364.647 156.485 364.938 156.829 365.032 157.243C365.128 157.658 365.015 158.096 364.733 158.414L362.154 161.323C362.056 161.434 361.92 161.489 361.781 161.489V161.491Z" fill="#102A54"/>
<path d="M369.205 151.544C369.126 151.544 369.047 151.526 368.973 151.485L359.019 146.191C358.775 146.062 358.683 145.76 358.812 145.516C358.941 145.272 359.242 145.18 359.485 145.309L369.439 150.603C369.682 150.733 369.774 151.034 369.645 151.278C369.557 151.446 369.384 151.544 369.207 151.544H369.205Z" fill="#102A54"/>
<path d="M371.535 146.444C371.452 146.444 371.369 146.424 371.293 146.381L362.821 141.624C362.581 141.489 362.496 141.185 362.629 140.945C362.764 140.705 363.066 140.618 363.305 140.753L371.778 145.511C372.018 145.646 372.102 145.949 371.97 146.189C371.879 146.352 371.71 146.444 371.535 146.444Z" fill="#102A54"/>
<path d="M355.074 159.775C354.982 159.775 354.89 159.749 354.807 159.695C354.577 159.547 354.509 159.239 354.656 159.006L358.072 153.656C358.22 153.425 358.527 153.356 358.76 153.504C358.99 153.652 359.058 153.961 358.911 154.194L355.494 159.544C355.399 159.692 355.238 159.773 355.076 159.773L355.074 159.775Z" fill="#102A54"/>
<path d="M59.9835 191.817L49.7031 213.373L62.4214 216.47L66.7702 194.645L59.9835 191.817Z" fill="white"/>
<path d="M64.1637 197.192C64.3276 196.226 63.6806 195.31 62.7185 195.146C61.7564 194.981 60.8436 195.63 60.6796 196.596C60.5157 197.561 61.1627 198.477 62.1248 198.642C63.0869 198.806 63.9998 198.157 64.1637 197.192Z" fill="#102A54"/>
<path d="M60.6539 203.974C61.6298 203.974 62.421 203.18 62.421 202.2C62.421 201.221 61.6298 200.427 60.6539 200.427C59.6779 200.427 58.8867 201.221 58.8867 202.2C58.8867 203.18 59.6779 203.974 60.6539 203.974Z" fill="#102A54"/>
<path d="M341.009 159.359L357.691 173.925L345.578 179.578L335.953 163.616L341.009 159.359Z" fill="white"/>
<path d="M343.206 170.021C342.381 169.498 342.136 168.403 342.655 167.577C343.177 166.748 344.268 166.502 345.091 167.024C345.917 167.547 346.162 168.642 345.642 169.468C345.123 170.295 344.03 170.543 343.206 170.021Z" fill="#102A54"/>
<path d="M339.675 165.687C338.85 165.163 338.604 164.069 339.124 163.242C339.646 162.414 340.736 162.168 341.56 162.689C342.386 163.213 342.631 164.307 342.111 165.134C341.59 165.962 340.499 166.208 339.675 165.687Z" fill="#102A54"/>
</g>
<path d="M196.7 353V335.5H199.9L208.125 347.825V335.5H211.325V353H208.125L199.9 340.7V353H196.7ZM220.593 353.3C219.393 353.3 218.309 353.025 217.343 352.475C216.393 351.925 215.634 351.167 215.068 350.2C214.518 349.217 214.243 348.083 214.243 346.8C214.243 345.517 214.526 344.392 215.093 343.425C215.659 342.442 216.418 341.675 217.368 341.125C218.334 340.575 219.418 340.3 220.618 340.3C221.801 340.3 222.868 340.575 223.818 341.125C224.784 341.675 225.543 342.442 226.093 343.425C226.659 344.392 226.943 345.517 226.943 346.8C226.943 348.083 226.659 349.217 226.093 350.2C225.543 351.167 224.784 351.925 223.818 352.475C222.851 353.025 221.776 353.3 220.593 353.3ZM220.593 350.525C221.426 350.525 222.151 350.217 222.768 349.6C223.384 348.967 223.693 348.033 223.693 346.8C223.693 345.567 223.384 344.642 222.768 344.025C222.151 343.392 221.434 343.075 220.618 343.075C219.768 343.075 219.034 343.392 218.418 344.025C217.818 344.642 217.518 345.567 217.518 346.8C217.518 348.033 217.818 348.967 218.418 349.6C219.034 350.217 219.759 350.525 220.593 350.525ZM235.836 353V335.5H241.811C243.861 335.5 245.544 335.867 246.861 336.6C248.194 337.317 249.177 338.333 249.811 339.65C250.461 340.95 250.786 342.483 250.786 344.25C250.786 346.017 250.461 347.558 249.811 348.875C249.177 350.175 248.194 351.192 246.861 351.925C245.544 352.642 243.861 353 241.811 353H235.836ZM239.036 350.25H241.661C243.127 350.25 244.286 350.017 245.136 349.55C245.986 349.067 246.594 348.383 246.961 347.5C247.327 346.6 247.511 345.517 247.511 344.25C247.511 343 247.327 341.925 246.961 341.025C246.594 340.125 245.986 339.433 245.136 338.95C244.286 338.467 243.127 338.225 241.661 338.225H239.036V350.25ZM257.809 353.3C256.743 353.3 255.868 353.133 255.184 352.8C254.501 352.45 253.993 351.992 253.659 351.425C253.326 350.858 253.159 350.233 253.159 349.55C253.159 348.4 253.609 347.467 254.509 346.75C255.409 346.033 256.759 345.675 258.559 345.675H261.709V345.375C261.709 344.525 261.468 343.9 260.984 343.5C260.501 343.1 259.901 342.9 259.184 342.9C258.534 342.9 257.968 343.058 257.484 343.375C257.001 343.675 256.701 344.125 256.584 344.725H253.459C253.543 343.825 253.843 343.042 254.359 342.375C254.893 341.708 255.576 341.2 256.409 340.85C257.243 340.483 258.176 340.3 259.209 340.3C260.976 340.3 262.368 340.742 263.384 341.625C264.401 342.508 264.909 343.758 264.909 345.375V353H262.184L261.884 351C261.518 351.667 261.001 352.217 260.334 352.65C259.684 353.083 258.843 353.3 257.809 353.3ZM258.534 350.8C259.451 350.8 260.159 350.5 260.659 349.9C261.176 349.3 261.501 348.558 261.634 347.675H258.909C258.059 347.675 257.451 347.833 257.084 348.15C256.718 348.45 256.534 348.825 256.534 349.275C256.534 349.758 256.718 350.133 257.084 350.4C257.451 350.667 257.934 350.8 258.534 350.8ZM273.317 353C272.017 353 270.975 352.683 270.192 352.05C269.409 351.417 269.017 350.292 269.017 348.675V343.275H266.892V340.6H269.017L269.392 337.275H272.217V340.6H275.567V343.275H272.217V348.7C272.217 349.3 272.342 349.717 272.592 349.95C272.859 350.167 273.309 350.275 273.942 350.275H275.492V353H273.317ZM282.589 353.3C281.523 353.3 280.648 353.133 279.964 352.8C279.281 352.45 278.773 351.992 278.439 351.425C278.106 350.858 277.939 350.233 277.939 349.55C277.939 348.4 278.389 347.467 279.289 346.75C280.189 346.033 281.539 345.675 283.339 345.675H286.489V345.375C286.489 344.525 286.248 343.9 285.764 343.5C285.281 343.1 284.681 342.9 283.964 342.9C283.314 342.9 282.748 343.058 282.264 343.375C281.781 343.675 281.481 344.125 281.364 344.725H278.239C278.323 343.825 278.623 343.042 279.139 342.375C279.673 341.708 280.356 341.2 281.189 340.85C282.023 340.483 282.956 340.3 283.989 340.3C285.756 340.3 287.148 340.742 288.164 341.625C289.181 342.508 289.689 343.758 289.689 345.375V353H286.964L286.664 351C286.298 351.667 285.781 352.217 285.114 352.65C284.464 353.083 283.623 353.3 282.589 353.3ZM283.314 350.8C284.231 350.8 284.939 350.5 285.439 349.9C285.956 349.3 286.281 348.558 286.414 347.675H283.689C282.839 347.675 282.231 347.833 281.864 348.15C281.498 348.45 281.314 348.825 281.314 349.275C281.314 349.758 281.498 350.133 281.864 350.4C282.231 350.667 282.714 350.8 283.314 350.8ZM298.775 353V335.5H310.075V338.075H301.975V342.975H308.525V345.5H301.975V353H298.775ZM317.761 353.3C316.561 353.3 315.477 353.025 314.511 352.475C313.561 351.925 312.802 351.167 312.236 350.2C311.686 349.217 311.411 348.083 311.411 346.8C311.411 345.517 311.694 344.392 312.261 343.425C312.827 342.442 313.586 341.675 314.536 341.125C315.502 340.575 316.586 340.3 317.786 340.3C318.969 340.3 320.036 340.575 320.986 341.125C321.952 341.675 322.711 342.442 323.261 343.425C323.827 344.392 324.111 345.517 324.111 346.8C324.111 348.083 323.827 349.217 323.261 350.2C322.711 351.167 321.952 351.925 320.986 352.475C320.019 353.025 318.944 353.3 317.761 353.3ZM317.761 350.525C318.594 350.525 319.319 350.217 319.936 349.6C320.552 348.967 320.861 348.033 320.861 346.8C320.861 345.567 320.552 344.642 319.936 344.025C319.319 343.392 318.602 343.075 317.786 343.075C316.936 343.075 316.202 343.392 315.586 344.025C314.986 344.642 314.686 345.567 314.686 346.8C314.686 348.033 314.986 348.967 315.586 349.6C316.202 350.217 316.927 350.525 317.761 350.525ZM331.622 353.3C330.072 353.3 328.872 352.817 328.022 351.85C327.188 350.883 326.772 349.467 326.772 347.6V340.6H329.947V347.3C329.947 348.367 330.163 349.183 330.597 349.75C331.03 350.317 331.713 350.6 332.647 350.6C333.53 350.6 334.255 350.283 334.822 349.65C335.405 349.017 335.697 348.133 335.697 347V340.6H338.897V353H336.072L335.822 350.9C335.438 351.633 334.88 352.217 334.147 352.65C333.43 353.083 332.588 353.3 331.622 353.3ZM342.182 353V340.6H345.007L345.257 342.7C345.64 341.967 346.19 341.383 346.907 340.95C347.64 340.517 348.498 340.3 349.482 340.3C351.015 340.3 352.207 340.783 353.057 341.75C353.907 342.717 354.332 344.133 354.332 346V353H351.132V346.3C351.132 345.233 350.915 344.417 350.482 343.85C350.048 343.283 349.373 343 348.457 343C347.557 343 346.815 343.317 346.232 343.95C345.665 344.583 345.382 345.467 345.382 346.6V353H342.182ZM363.092 353.3C361.925 353.3 360.883 353.017 359.967 352.45C359.05 351.883 358.325 351.108 357.792 350.125C357.258 349.142 356.992 348.025 356.992 346.775C356.992 345.525 357.258 344.417 357.792 343.45C358.325 342.467 359.05 341.7 359.967 341.15C360.883 340.583 361.925 340.3 363.092 340.3C364.025 340.3 364.842 340.475 365.542 340.825C366.242 341.175 366.808 341.667 367.242 342.3V335H370.442V353H367.592L367.242 351.225C366.842 351.775 366.308 352.258 365.642 352.675C364.992 353.092 364.142 353.3 363.092 353.3ZM363.767 350.5C364.8 350.5 365.642 350.158 366.292 349.475C366.958 348.775 367.292 347.883 367.292 346.8C367.292 345.717 366.958 344.833 366.292 344.15C365.642 343.45 364.8 343.1 363.767 343.1C362.75 343.1 361.908 343.442 361.242 344.125C360.575 344.808 360.242 345.692 360.242 346.775C360.242 347.858 360.575 348.75 361.242 349.45C361.908 350.15 362.75 350.5 363.767 350.5Z" fill="black"/>
<defs>
<clipPath id="clip0_613_2746">
<rect width="568" height="294" fill="white"/>
</clipPath>
</defs>
</svg>
