<svg id="Layer_1" data-name="Layer 1" xmlns="http://www.w3.org/2000/svg" xmlns:xlink="http://www.w3.org/1999/xlink" viewBox="0 0 322.24 429.95"><defs><style>.cls-1{stroke:#fff;stroke-miterlimit:10;stroke-width:2px;fill:url(#linear-gradient);}.cls-2{fill:#faf9f4;}.cls-3{fill:url(#linear-gradient-2);}.cls-4{fill:#fff;}</style><linearGradient id="linear-gradient" x1="117.37" y1="147.59" x2="384.48" y2="382.37" gradientUnits="userSpaceOnUse"><stop offset="0.06" stop-color="#082350"/><stop offset="0.73" stop-color="#111016"/></linearGradient><linearGradient id="linear-gradient-2" x1="161.6" y1="255.69" x2="318.73" y2="162.11" gradientUnits="userSpaceOnUse"><stop offset="0.3" stop-color="#fff200"/><stop offset="0.87" stop-color="#fbb040"/><stop offset="0.96" stop-color="#fbb040"/></linearGradient></defs><path class="cls-1" d="M413.46,222v58.76a10.74,10.74,0,0,1-1,4.07c-2.62,5.68-9.41,7-10.37,7.13V422.61a22.24,22.24,0,0,1-2,6.32,23.28,23.28,0,0,1-7.16,8.42,26.26,26.26,0,0,1-9.66,4.61l-234.47-.21L148.28,483l-11.56-13.3-12,12.08V441.39c-1.86,0-4.72-.07-8.23,0-5,.11-5.38.28-6.86,0-4.74-.86-7.88-4.08-9.82-6a25.73,25.73,0,0,1-5.73-9.12V410.33h12.15V412h5.56a3.72,3.72,0,0,0,.92-.42,6.06,6.06,0,0,0,0-10.41,3.72,3.72,0,0,0-.92-.42h-5.56v1.65H94.08v-4.81c0-11.91,0-23.22,0-34h12.19v1.65h5.56a3.72,3.72,0,0,0,.92-.42,6.06,6.06,0,0,0,0-10.41,3.72,3.72,0,0,0-.92-.42h-5.56v1.65H94c0-10.54,0-20.6,0-30.29h12.26V327h5.56a3.72,3.72,0,0,0,.92-.42,6.06,6.06,0,0,0,0-10.41,3.72,3.72,0,0,0-.92-.42h-5.56v1.65H94c0-10.48-.07-20.54-.11-30.27h12.39v1.65h5.56a3.72,3.72,0,0,0,.92-.42,6.06,6.06,0,0,0,0-10.41,3.72,3.72,0,0,0-.92-.42h-5.56v1.65H93.82c0-10.37-.07-20.43-.11-30.29h12.52v1.64h5.56a3.3,3.3,0,0,0,.92-.41,6.06,6.06,0,0,0,0-10.41,3.38,3.38,0,0,0-.92-.42h-5.56v1.65H93.69c-.07-10.17-.11-20.21-.16-30.27h12.7v1.64h5.56a3.3,3.3,0,0,0,.92-.41,6.06,6.06,0,0,0,0-10.41,3.38,3.38,0,0,0-.92-.42h-5.56v1.65H93.51c0-10-.09-20-.13-30.32h12.85V174h5.56a3.72,3.72,0,0,0,.92-.42,6.06,6.06,0,0,0,0-10.41,3.72,3.72,0,0,0-.92-.42h-5.56v1.65H93.36c0-9.8,0-19.83-.09-30.27h13v1.65h5.56a3.72,3.72,0,0,0,.92-.42,6.06,6.06,0,0,0,0-10.41,3.72,3.72,0,0,0-.92-.42h-5.56v1.65h-13c0-9.71,0-19.77,0-30.29h13v1.65h5.56a3.72,3.72,0,0,0,.92-.42,6.06,6.06,0,0,0,0-10.41,3.72,3.72,0,0,0-.92-.42h-5.56v1.65h-13V71.82C93.69,70.19,96.3,61.4,104.45,58a17.31,17.31,0,0,1,5.89-1.3h270.5a24.76,24.76,0,0,1,6,1.67,25.63,25.63,0,0,1,11,9.16,19.6,19.6,0,0,1,3.55,7.67,18.25,18.25,0,0,1,.38,4.67V211.32a14.74,14.74,0,0,1,4.54,1.54A15.88,15.88,0,0,1,413.46,222Z" transform="translate(-92.22 -55.68)"/><rect class="cls-2" x="124.17" y="148.46" width="17.29" height="104.22"/><rect class="cls-2" x="152.34" y="124.05" width="17.43" height="128.63"/><rect class="cls-2" x="180.85" y="102.7" width="17.23" height="149.98"/><path class="cls-3" d="M168.81,275.81a251.75,251.75,0,0,0,72.95-31.16,251.36,251.36,0,0,0,76.93-76.27l19.19,12.25-4.25-52.14L283.7,146.18l14.14,9.12A223.52,223.52,0,0,1,278,190.15C243.76,239.54,197.1,264.1,168.81,275.81Z" transform="translate(-92.22 -55.68)"/><path class="cls-2" d="M181.85,296.11c-5.57.13-5.57.13-5.57,5.77,0,5.07.29,5.38,5.43,5.39,6.08,0,6.4-.22,6.5-4.91C188.34,296,188.34,296,181.85,296.11Z" transform="translate(-92.22 -55.68)"/><path class="cls-2" d="M200.75,279.16c-6.2.08-5.28-.77-5.49,5.32-.25,6.74.25,5.73,5.67,5.72,6.15,0,6.15,0,6.16-6,0-.58,0-1.17,0-1.75.16-2.36-1-3.4-3.32-3.29C202.77,279.19,201.76,279.16,200.75,279.16Z" transform="translate(-92.22 -55.68)"/><path class="cls-2" d="M201,296.25c-6.77,0-5.6-.36-5.7,5.57-.09,5.45,0,5.45,5.56,5.47,6.18,0,6.18,0,6.19-6,0-.58-.05-1.17,0-1.75.17-2.34-.89-3.43-3.26-3.29C202.9,296.29,202,296.25,201,296.25Z" transform="translate(-92.22 -55.68)"/><path class="cls-4" d="M141.19,420.45V407.19H359.73a13.57,13.57,0,0,0,6-3.63,13,13,0,0,0,3.52-8.84V79.56a12.86,12.86,0,0,1,5.29.47,11.52,11.52,0,0,1,6.55,4.9,10.23,10.23,0,0,1,1.45,5.2V401.47a21.87,21.87,0,0,1-4.25,9.19c-6.07,7.68-15.45,8.81-17.44,9Z" transform="translate(-92.22 -55.68)"/></svg>