<svg width="20" height="20" viewBox="0 0 20 20" fill="none" xmlns="http://www.w3.org/2000/svg">
<path d="M2.5 18.3333H17.5" stroke="white" stroke-width="1.5" stroke-linecap="round" stroke-linejoin="round"/>
<path d="M2.5 9.16667C2.5 8.38099 2.5 7.98816 2.74408 7.74408C2.98816 7.5 3.38099 7.5 4.16667 7.5C4.95234 7.5 5.34518 7.5 5.58926 7.74408C5.83333 7.98816 5.83333 8.38099 5.83333 9.16667V14.1667C5.83333 14.9523 5.83333 15.3452 5.58926 15.5893C5.34518 15.8333 4.95234 15.8333 4.16667 15.8333C3.38099 15.8333 2.98816 15.8333 2.74408 15.5893C2.5 15.3452 2.5 14.9523 2.5 14.1667V9.16667Z" stroke="white" stroke-width="1.5"/>
<path d="M8.33325 5.83333C8.33325 5.04766 8.33325 4.65482 8.57733 4.41074C8.82141 4.16666 9.21424 4.16666 9.99992 4.16666C10.7856 4.16666 11.1784 4.16666 11.4225 4.41074C11.6666 4.65482 11.6666 5.04766 11.6666 5.83333V14.1667C11.6666 14.9523 11.6666 15.3452 11.4225 15.5893C11.1784 15.8333 10.7856 15.8333 9.99992 15.8333C9.21424 15.8333 8.82141 15.8333 8.57733 15.5893C8.33325 15.3452 8.33325 14.9523 8.33325 14.1667V5.83333Z" stroke="white" stroke-width="1.5"/>
<path d="M14.1667 3.33333C14.1667 2.54766 14.1667 2.15482 14.4108 1.91074C14.6549 1.66666 15.0477 1.66666 15.8334 1.66666C16.6191 1.66666 17.0119 1.66666 17.256 1.91074C17.5001 2.15482 17.5001 2.54766 17.5001 3.33333V14.1667C17.5001 14.9523 17.5001 15.3452 17.256 15.5893C17.0119 15.8333 16.6191 15.8333 15.8334 15.8333C15.0477 15.8333 14.6549 15.8333 14.4108 15.5893C14.1667 15.3452 14.1667 14.9523 14.1667 14.1667V3.33333Z" stroke="white" stroke-width="1.5"/>
</svg>
