<svg width="20" height="20" viewBox="0 0 20 20" fill="none" xmlns="http://www.w3.org/2000/svg">
<path d="M7.63093 17.3095V14.7539C7.63092 14.1039 8.16085 13.5757 8.81743 13.5713H11.2225C11.8822 13.5713 12.417 14.1008 12.417 14.7539V14.7539V17.3174C12.4169 17.8693 12.8618 18.3204 13.4191 18.3333H15.0225C16.6209 18.3333 17.9166 17.0506 17.9166 15.4682V15.4682V8.19819C17.908 7.57568 17.6128 6.99111 17.1149 6.61085L11.6314 2.23774C10.6707 1.4763 9.30509 1.4763 8.34443 2.23774L2.88494 6.61879C2.38513 6.99751 2.08941 7.58305 2.08325 8.20612V15.4682C2.08325 17.0506 3.37898 18.3333 4.97734 18.3333H6.58072C7.15188 18.3333 7.6149 17.8749 7.6149 17.3095V17.3095" stroke="white" stroke-width="1.5" stroke-linecap="round" stroke-linejoin="round"/>
</svg>
