<svg width="20" height="20" viewBox="0 0 20 20" fill="none" xmlns="http://www.w3.org/2000/svg">
<path fill-rule="evenodd" clip-rule="evenodd" d="M9.95227 1.04166L11.2501 1.04166C11.5953 1.04166 11.8751 1.32148 11.8751 1.66666C11.8751 2.01183 11.5953 2.29166 11.2501 2.29166H10.0001C8.01823 2.29166 6.59471 2.29298 5.5114 2.43863C4.44606 2.58186 3.80379 2.85427 3.32908 3.32899C2.85436 3.8037 2.58195 4.44597 2.43872 5.5113C2.29308 6.59462 2.29175 8.01814 2.29175 9.99999C2.29175 11.9818 2.29308 13.4054 2.43872 14.4887C2.58195 15.554 2.85436 16.1963 3.32908 16.671C3.80379 17.1457 4.44606 17.4181 5.5114 17.5613C6.59471 17.707 8.01823 17.7083 10.0001 17.7083C11.9819 17.7083 13.4055 17.707 14.4888 17.5613C15.5541 17.4181 16.1964 17.1457 16.6711 16.671C17.1458 16.1963 17.4182 15.554 17.5614 14.4887C17.7071 13.4054 17.7084 11.9818 17.7084 9.99999V8.74999C17.7084 8.40481 17.9882 8.12499 18.3334 8.12499C18.6786 8.12499 18.9584 8.40481 18.9584 8.74999V10.0478C18.9584 11.9715 18.9584 13.479 18.8003 14.6552C18.6384 15.8592 18.3006 16.8092 17.555 17.5549C16.8093 18.3006 15.8593 18.6383 14.6553 18.8002C13.4791 18.9583 11.9716 18.9583 10.0479 18.9583H9.95227C8.02861 18.9583 6.52108 18.9583 5.34484 18.8002C4.14089 18.6383 3.19087 18.3006 2.4452 17.5549C1.69952 16.8092 1.36174 15.8592 1.19987 14.6552C1.04173 13.479 1.04174 11.9715 1.04175 10.0478V9.95217C1.04174 8.02851 1.04173 6.52098 1.19987 5.34474C1.36174 4.1408 1.69952 3.19078 2.4452 2.4451C3.19087 1.69943 4.14089 1.36165 5.34484 1.19978C6.52107 1.04164 8.0286 1.04165 9.95227 1.04166ZM13.9755 1.89659C15.1154 0.756681 16.9636 0.756681 18.1035 1.89659C19.2434 3.03649 19.2434 4.88464 18.1035 6.02455L12.5634 11.5646C12.254 11.8741 12.0602 12.0679 11.8439 12.2366C11.5892 12.4353 11.3135 12.6057 11.0219 12.7447C10.7743 12.8627 10.5142 12.9493 10.0991 13.0877L7.67863 13.8945C7.23176 14.0434 6.73908 13.9271 6.40601 13.5941C6.07293 13.261 5.95663 12.7683 6.10558 12.3214L6.91239 9.90102C7.05074 9.48587 7.1374 9.22582 7.25541 8.9782C7.3944 8.68655 7.56476 8.41092 7.76345 8.15617C7.93216 7.93988 8.126 7.74606 8.43545 7.43665L13.9755 1.89659ZM17.2196 2.78047C16.5679 2.12872 15.5112 2.12872 14.8594 2.78047L14.5456 3.09432C14.5645 3.1742 14.5909 3.26938 14.6278 3.37554C14.7472 3.71976 14.9732 4.17309 15.4001 4.59998C15.827 5.02688 16.2803 5.25288 16.6245 5.3723C16.7307 5.40913 16.8259 5.4356 16.9058 5.45451L17.2196 5.14066C17.8714 4.48891 17.8714 3.43222 17.2196 2.78047ZM15.921 6.43923C15.4911 6.25432 14.9902 5.95787 14.5162 5.48387C14.0422 5.00986 13.7458 4.50901 13.5608 4.07904L9.348 8.29187C9.00091 8.63897 8.86478 8.77662 8.74909 8.92495C8.60623 9.10811 8.48375 9.30628 8.38382 9.51597C8.30289 9.68579 8.24064 9.8691 8.08542 10.3348L7.72551 11.4145L8.58556 12.2746L9.66529 11.9147C10.131 11.7594 10.3143 11.6972 10.4841 11.6163C10.6938 11.5163 10.892 11.3938 11.0751 11.251C11.2235 11.1353 11.3611 10.9992 11.7082 10.6521L15.921 6.43923Z" fill="white"/>
</svg>
