<svg width="20" height="20" viewBox="0 0 20 20" fill="none" xmlns="http://www.w3.org/2000/svg">
<g clip-path="url(#clip0_303_15831)">
<path d="M10.0001 1.66667C14.6025 1.66667 18.3334 5.39763 18.3334 10C18.3334 14.6024 14.6025 18.3333 10.0001 18.3333C5.39771 18.3333 1.66675 14.6024 1.66675 10C1.66675 7.66884 2.62395 5.56124 4.16675 4.04881" stroke="white" stroke-width="1.5" stroke-linecap="round"/>
<path d="M4.16675 10C4.16675 13.2217 6.77842 15.8333 10.0001 15.8333C13.2217 15.8333 15.8334 13.2217 15.8334 10C15.8334 6.77834 13.2217 4.16667 10.0001 4.16667" stroke="white" stroke-width="1.5" stroke-linecap="round"/>
<path d="M10 13.3333C11.8409 13.3333 13.3333 11.841 13.3333 10C13.3333 8.15905 11.8409 6.66667 10 6.66667" stroke="white" stroke-width="1.5" stroke-linecap="round"/>
</g>
<defs>
<clipPath id="clip0_303_15831">
<rect width="20" height="20" fill="white"/>
</clipPath>
</defs>
</svg>
