<svg width="20" height="20" viewBox="0 0 20 20" fill="none" xmlns="http://www.w3.org/2000/svg">
<path fill-rule="evenodd" clip-rule="evenodd" d="M17.3389 6.35298L16.8202 5.4529C16.3814 4.6913 15.409 4.42856 14.6463 4.86556V4.86556C14.2833 5.07942 13.8501 5.14009 13.4423 5.0342C13.0345 4.92831 12.6855 4.66456 12.4724 4.30111C12.3353 4.07009 12.2616 3.80696 12.2588 3.53833V3.53833C12.2712 3.10765 12.1087 2.6903 11.8084 2.38135C11.5081 2.07241 11.0955 1.89818 10.6646 1.89836H9.61962C9.19751 1.89836 8.7928 2.06656 8.49504 2.36575C8.19728 2.66494 8.03102 3.07046 8.03305 3.49256V3.49256C8.02054 4.36407 7.31044 5.06397 6.43885 5.06388C6.17022 5.06109 5.90709 4.98742 5.67607 4.85031V4.85031C4.91343 4.41331 3.94097 4.67604 3.50216 5.43764L2.94533 6.35298C2.50705 7.11363 2.76621 8.08547 3.52504 8.52689V8.52689C4.01829 8.81166 4.32215 9.33796 4.32215 9.90751C4.32215 10.4771 4.01829 11.0034 3.52504 11.2881V11.2881C2.76717 11.7266 2.50773 12.6961 2.94533 13.4544V13.4544L3.47165 14.3621C3.67725 14.7331 4.02221 15.0069 4.4302 15.1228C4.83819 15.2388 5.27557 15.1874 5.64556 14.98V14.98C6.00927 14.7677 6.4427 14.7096 6.84949 14.8185C7.25628 14.9273 7.60274 15.1942 7.81184 15.5597C7.94896 15.7907 8.02263 16.0538 8.02542 16.3225V16.3225C8.02542 17.2029 8.73917 17.9167 9.61962 17.9167H10.6646C11.5421 17.9167 12.2546 17.2076 12.2588 16.3301V16.3301C12.2568 15.9067 12.4241 15.5 12.7235 15.2006C13.0229 14.9012 13.4296 14.7338 13.853 14.7359C14.121 14.7431 14.3831 14.8164 14.6158 14.9495V14.9495C15.3765 15.3877 16.3483 15.1286 16.7897 14.3698V14.3698L17.3389 13.4544C17.5515 13.0895 17.6098 12.655 17.501 12.2469C17.3922 11.8389 17.1252 11.4911 16.7592 11.2805V11.2805C16.3932 11.0699 16.1262 10.7221 16.0174 10.3141C15.9086 9.90605 15.9669 9.47148 16.1795 9.1066C16.3177 8.86524 16.5179 8.66513 16.7592 8.52689V8.52689C17.5135 8.08571 17.772 7.11954 17.3389 6.3606V6.3606V6.35298Z" stroke="white" stroke-width="1.5" stroke-linecap="round" stroke-linejoin="round"/>
<ellipse cx="10.1459" cy="9.90751" rx="2.1968" ry="2.1968" stroke="white" stroke-width="1.5" stroke-linecap="round" stroke-linejoin="round"/>
</svg>
